<?xml version="1.0" encoding="utf-8"?>
<!-- Generator: Adobe Illustrator 21.1.0, SVG Export Plug-In . SVG Version: 6.00 Build 0)  -->
<svg version="1.1" id="Layer_1" xmlns="http://www.w3.org/2000/svg" xmlns:xlink="http://www.w3.org/1999/xlink" x="0px" y="0px"
	 viewBox="0 0 200 222.5" style="enable-background:new 0 0 200 222.5;" xml:space="preserve">
<style type="text/css">
	.st0{fill:url(#SVGID_1_);}
	.st1{fill:#2681FF;}
	.st2{fill:#0052CC;}
</style>
<title>Atlassian-vertical-blue-rgb</title>
<g id="Layer_2">
	<g id="Blue">
		
			<linearGradient id="SVGID_1_" gradientUnits="userSpaceOnUse" x1="91.0186" y1="126.053" x2="43.8446" y2="44.345" gradientTransform="matrix(1 0 0 -1 0 224.0003)">
			<stop  offset="0" style="stop-color:#0052CC"/>
			<stop  offset="0.923" style="stop-color:#2684FF"/>
		</linearGradient>
		<path class="st0" d="M66.5,84.2c-2.7-2.9-7-2.7-8.8,1L13,174.5c-1.3,2.6-0.3,5.8,2.4,7.2c0.7,0.4,1.6,0.6,2.4,0.6H80
			c2,0,3.9-1.1,4.8-3C98.2,151.5,90.1,109.3,66.5,84.2z"/>
		<path class="st1" d="M99.3,2.9c-25,39.6-23.3,83.5-6.9,116.4l30,60c0.9,1.8,2.8,3,4.8,3h62.2c3,0,5.3-2.4,5.3-5.3
			c0-0.8-0.2-1.6-0.6-2.4c0,0-83.7-167.5-85.8-171.7C106.5-0.9,101.7-1,99.3,2.9z"/>
		<path class="st2" d="M91.2,204.6c0,3.6,1.7,6.4,8.2,7.7c3.9,0.8,4.7,1.4,4.7,2.7c0,1.3-0.8,2.1-3.6,2.1c-3.3-0.1-6.6-0.9-9.4-2.6
			v5.9c2.9,1.5,6.1,2.2,9.4,2c6.8,0,9.5-3,9.5-7.6 M110,214.9c0-4.3-2.3-6.3-8.6-7.6c-3.5-0.8-4.4-1.6-4.4-2.7c0-1.4,1.3-2,3.6-2
			c2.9,0.1,5.7,0.8,8.2,2v-5.6c-2.5-1.1-5.3-1.7-8-1.7c-6.3,0-9.6,2.7-9.6,7.2"/>
		<polygon class="st2" points="178.8,197.8 178.8,222.1 184,222.1 184,203.5 186.2,208.5 193.5,222.1 200,222.1 200,197.8 
			194.8,197.8 194.8,213.5 192.9,208.9 187,197.8 		"/>
		<rect x="140.1" y="197.8" class="st2" width="5.7" height="24.3"/>
		<path class="st2" d="M133.6,214.9c0-4.3-2.3-6.3-8.6-7.6c-3.5-0.8-4.4-1.6-4.4-2.7c0-1.4,1.3-2,3.6-2c2.9,0.1,5.7,0.8,8.2,2v-5.6
			c-2.5-1.1-5.3-1.7-8-1.7c-6.3,0-9.6,2.7-9.6,7.2c0,3.6,1.7,6.4,8.2,7.7c3.9,0.8,4.7,1.4,4.7,2.7c0,1.3-0.8,2.1-3.6,2.1
			c-3.3-0.1-6.6-0.9-9.4-2.6v5.9c2.9,1.5,6.1,2.2,9.4,2C130.9,222.5,133.6,219.4,133.6,214.9"/>
		<polygon class="st2" points="47.2,197.8 47.2,222.1 58.9,222.1 60.7,216.8 52.9,216.8 52.9,197.8 		"/>
		<polygon class="st2" points="24.2,197.8 24.2,203 30.5,203 30.5,222.1 36.2,222.1 36.2,203 43,203 43,197.8 		"/>
		<path class="st2" d="M16,197.8H8.5L0,222.1h6.5l1.2-4.1c3,0.9,6.1,0.9,9.1,0l1.2,4.1h6.5L16,197.8z M12.2,213.6
			c-1.1,0-2.1-0.2-3.1-0.4l3.1-10.6l3.1,10.6C14.3,213.5,13.3,213.6,12.2,213.6z"/>
		<path class="st2" d="M79,197.8h-7.5L63,222.1h6.5l1.2-4.1c3,0.9,6.1,0.9,9.1,0l1.2,4.1h6.5L79,197.8z M75.2,213.6
			c-1.1,0-2.1-0.2-3.1-0.4l3.1-10.6l3.1,10.6C77.3,213.5,76.3,213.6,75.2,213.6L75.2,213.6z"/>
		<path class="st2" d="M166.2,197.8h-7.5l-8.5,24.3h6.5l1.2-4.1c3,0.9,6.1,0.9,9.1,0l1.2,4.1h6.5L166.2,197.8z M162.5,213.6
			c-1.1,0-2.1-0.2-3.1-0.4l3.1-10.6l3.1,10.6C164.6,213.5,163.5,213.6,162.5,213.6L162.5,213.6z"/>
	</g>
</g>
</svg>
