<?xml version="1.0" encoding="UTF-8" standalone="no"?>
<svg
   xmlns:dc="http://purl.org/dc/elements/1.1/"
   xmlns:cc="http://creativecommons.org/ns#"
   xmlns:rdf="http://www.w3.org/1999/02/22-rdf-syntax-ns#"
   xmlns:svg="http://www.w3.org/2000/svg"
   xmlns="http://www.w3.org/2000/svg"
   xmlns:sodipodi="http://sodipodi.sourceforge.net/DTD/sodipodi-0.dtd"
   xmlns:inkscape="http://www.inkscape.org/namespaces/inkscape"
   width="152.90375"
   height="97.893181"
   viewBox="0 0 194 194"
   id="svg2"
   sodipodi:version="0.32"
   inkscape:version="0.46"
   sodipodi:docname="Chanel logo.svg"
   inkscape:output_extension="org.inkscape.output.svg.inkscape"
   version="1.0">
  <metadata
     id="metadata39">
    <rdf:RDF>
      <cc:Work
         rdf:about="">
        <dc:format>image/svg+xml</dc:format>
        <dc:type
           rdf:resource="http://purl.org/dc/dcmitype/StillImage" />
      </cc:Work>
    </rdf:RDF>
  </metadata>
  <defs
     id="defs37">
    <inkscape:perspective
       sodipodi:type="inkscape:persp3d"
       inkscape:vp_x="0 : 121.25 : 1"
       inkscape:vp_y="0 : 1000 : 0"
       inkscape:vp_z="242.5 : 121.25 : 1"
       inkscape:persp3d-origin="121.25 : 80.833333 : 1"
       id="perspective41" />
  </defs>
  <sodipodi:namedview
     inkscape:window-height="667"
     inkscape:window-width="640"
     inkscape:pageshadow="2"
     inkscape:pageopacity="0.0"
     guidetolerance="10.0"
     gridtolerance="10.0"
     objecttolerance="10.0"
     borderopacity="1.0"
     bordercolor="#666666"
     pagecolor="#ffffff"
     id="base"
     showgrid="false"
     inkscape:zoom="10.777182"
     inkscape:cx="-0.40702423"
     inkscape:cy="9.9095772"
     inkscape:window-x="611"
     inkscape:window-y="368"
     inkscape:current-layer="svg2" />
  <g
     id="g2452"
     transform="matrix(2.4763374,0,0,2.4763374,-150.24767,-82.943284)">
    <g
       transform="matrix(0.6960123,0,0,0.6960123,56.08938,15.250729)"
       id="g2414">
      <g
         transform="translate(-33.78554,60.934635)"
         id="g2438">
        <g
           id="g4"
           style="fill:#161413;fill-rule:evenodd;stroke:none;stroke-width:1;stroke-linecap:butt;stroke-linejoin:miter;stroke-dasharray:none"
           transform="translate(8.76367,50.1689)">
          <path
             id="path6"
             d="M 25.3349,20.2266 C 25.3134,20.2686 25.2715,20.3526 25.2509,20.4161 C 22.9804,24.7051 18.5224,27.627 13.4345,27.627 C 6.05473,27.627 0,21.4454 0,13.8135 C 0,6.2237 6.05473,0 13.4345,0 C 18.5439,0 23.0224,2.9854 25.2715,7.3379 C 25.3349,7.4219 25.3554,7.4639 25.4189,7.5899 C 25.4404,7.6114 21.1299,10.7227 21.0879,10.6602 C 21.0664,10.5762 21.0459,10.5127 21.0039,10.4707 C 19.7627,7.3799 16.8203,5.3194 13.4345,5.3829 C 8.91403,5.4249 5.19243,9.167 5.19243,13.8135 C 5.19243,18.502 8.91403,22.2872 13.4345,22.2872 C 16.7148,22.2872 19.5742,20.2686 20.8769,17.4092 C 20.9404,17.3038 20.9619,17.2198 21.0039,17.1358 C 21.0039,17.1358 25.3349,20.2266 25.3349,20.2266 z" />
        </g>
        <g
           id="g8"
           style="fill:#161413;fill-rule:evenodd;stroke:none;stroke-width:1;stroke-linecap:butt;stroke-linejoin:miter;stroke-dasharray:none"
           transform="translate(39.6699,50.4219)">
          <path
             id="path10"
             d="M 0,0 C 0,0 5.1719,0 5.1719,0 C 5.1719,0 5.1719,9.6504 5.1719,9.6504 C 5.1719,9.6504 18.7549,9.6504 18.7549,9.6504 C 18.7549,9.6504 18.7549,0 18.7549,0 C 18.7549,0 23.9688,0 23.9688,0 C 23.9688,0 23.9688,26.8486 23.9688,26.8486 C 23.9688,26.8486 18.7549,26.8486 18.7549,26.8486 C 18.7549,26.8486 18.7549,15.0537 18.7549,15.0537 C 18.7549,15.0537 5.1719,15.0537 5.1719,15.0537 C 5.1719,15.0537 5.1719,26.8486 5.1719,26.8486 C 5.1719,26.8486 0,26.8486 0,26.8486 C 0,26.8486 0,0 0,0 z" />
        </g>
        <g
           id="g12"
           style="fill:#161413;fill-rule:evenodd;stroke:none;stroke-width:1;stroke-linecap:butt;stroke-linejoin:miter;stroke-dasharray:none"
           transform="translate(136.638,50.4219)">
          <path
             id="path14"
             d="M 0,26.8486 C 0,26.8486 0,0 0,0 C 0,0 18.775,0 18.775,0 C 18.775,0 18.775,5.4238 18.775,5.4238 C 18.775,5.4238 5.235,5.4238 5.235,5.4238 C 5.235,5.4238 5.235,10.7851 5.235,10.7851 C 5.235,10.7851 17.745,10.7851 17.745,10.7851 C 17.745,10.7851 17.745,16.1465 17.745,16.1465 C 17.745,16.1465 5.235,16.1465 5.235,16.1465 C 5.235,16.1465 5.235,21.5078 5.235,21.5078 C 5.235,21.5078 20.688,21.5078 20.688,21.5078 C 20.688,21.5078 20.688,26.8486 20.688,26.8486 C 20.688,26.8486 0,26.8486 0,26.8486 z" />
        </g>
        <g
           id="g16"
           style="fill:#161413;fill-rule:evenodd;stroke:none;stroke-width:1;stroke-linecap:butt;stroke-linejoin:miter;stroke-dasharray:none"
           transform="translate(164.664,50.4219)">
          <path
             id="path18"
             d="M 0,26.8486 C 0,26.8486 0,0 0,0 C 0,0 5.256,0 5.256,0 C 5.256,0 5.256,21.5078 5.256,21.5078 C 5.256,21.5078 19.848,21.5078 19.848,21.5078 C 19.848,21.5078 19.848,26.8486 19.848,26.8486 C 19.848,26.8486 0,26.8486 0,26.8486 z" />
        </g>
        <g
           id="g20"
           style="fill:#161413;fill-rule:evenodd;stroke:none;stroke-width:1;stroke-linecap:butt;stroke-linejoin:miter;stroke-dasharray:none"
           transform="translate(103.166,50.4219)">
          <path
             id="path22"
             d="M 5.256,26.8486 C 5.256,26.8486 5.088,26.8486 5.088,26.8486 C 5.088,26.8486 0,26.8486 0,26.8486 C 0,26.8486 0,0 0,0 C 0,0 0.378,0 0.378,0 C 0.378,0 7.295,0 7.295,0 C 7.295,0 18.796,16.1465 18.796,16.1465 C 18.796,16.1465 18.796,0 18.796,0 C 18.796,0 24.01,0 24.01,0 C 24.01,0 24.01,26.8486 24.01,26.8486 C 24.01,26.8486 19.847,26.8486 19.847,26.8486 C 19.847,26.8486 5.256,6.6015 5.256,6.6015 C 5.256,6.6015 5.256,26.8486 5.256,26.8486 z" />
        </g>
        <g
           id="g24"
           style="fill:#161413;fill-rule:evenodd;stroke:none;stroke-width:1;stroke-linecap:butt;stroke-linejoin:miter;stroke-dasharray:none"
           transform="translate(67.8223,50.4219)">
          <path
             id="path26"
             d="M 15.5586,5.4238 C 15.5586,5.4238 10.9756,16.1465 10.9756,16.1465 C 10.9756,16.1465 20.3525,16.1465 20.3525,16.1465 C 20.3525,16.1465 15.5586,5.4238 15.5586,5.4238 z M 8.6201,21.5078 C 8.6201,21.5078 6.2236,26.8486 6.2236,26.8486 C 6.2236,26.8486 0,26.8486 0,26.8486 C 0,26.8486 11.9004,0 11.9004,0 C 11.9004,0 19.1748,0 19.1748,0 C 19.1748,0 31.1591,26.8486 31.1591,26.8486 C 31.1591,26.8486 24.9355,26.8486 24.9355,26.8486 C 24.9355,26.8486 22.5185,21.5078 22.5185,21.5078 C 22.5185,21.5078 8.6201,21.5078 8.6201,21.5078 z" />
        </g>
      </g>
    </g>
    <g
       id="g28"
       style="fill:#161413;fill-rule:evenodd;stroke:none;stroke-width:1;stroke-linecap:butt;stroke-linejoin:miter;stroke-dasharray:none"
       transform="matrix(1.8302345,0,0,1.8302345,63.773317,33.494341)">
      <path
         id="path30"
         d="M 20.7305,28.447 C 18.586,29.687 16.0205,30.424 13.2871,30.424 C 7.6944,30.424 2.7959,27.375 0.1465,22.854 C 0.1465,22.833 0.126,22.833 0.126,22.812 C 0.126,22.791 0.1045,22.791 0.1045,22.77 C 0.1045,22.77 2.2491,21.656 2.2491,21.656 C 2.2491,21.656 4.3936,20.562 4.3936,20.562 C 4.4151,20.584 4.4366,20.604 4.4571,20.647 C 6.2862,23.611 9.5664,25.588 13.2871,25.588 C 14.4864,25.588 15.6426,25.378 16.6729,25.041 C 14.3809,22.413 12.9932,18.965 12.9932,15.201 C 12.9932,11.459 14.3604,8.011 16.6309,5.361 C 15.6006,5.004 14.4649,4.815 13.2871,4.815 C 9.6084,4.815 6.2022,6.791 4.3311,9.966 C 4.3096,9.987 4.3096,10.009 4.3096,10.029 C 4.3096,10.029 0,7.801 0,7.801 C 0.0205,7.759 0.042,7.717 0.0625,7.695 C 2.6914,3.091 7.6524,0 13.2871,0 C 16.0205,0 18.586,0.736 20.7305,1.998 C 22.875,0.736 25.4405,0 28.1729,0 C 33.8077,0 38.7697,3.091 41.3977,7.695 C 41.4187,7.717 41.4397,7.759 41.4607,7.801 C 41.4607,7.801 37.1507,10.029 37.1507,10.029 C 37.1507,10.009 37.1507,9.987 37.1297,9.966 C 35.2587,6.791 31.8527,4.815 28.1729,4.815 C 26.9961,4.815 25.8604,5.004 24.8301,5.361 C 27.1006,8.011 28.4678,11.459 28.4678,15.201 C 28.4678,18.965 27.0801,22.413 24.7881,25.041 C 25.8184,25.378 26.9746,25.588 28.1729,25.588 C 31.8947,25.588 35.1747,23.611 37.0037,20.647 C 37.0247,20.604 37.0457,20.584 37.0667,20.562 C 37.0667,20.562 39.2107,21.656 39.2107,21.656 C 39.2107,21.656 41.3557,22.77 41.3557,22.77 C 41.3557,22.791 41.3347,22.791 41.3347,22.812 C 41.3347,22.833 41.3137,22.833 41.3137,22.854 C 38.6647,27.375 33.7657,30.424 28.1729,30.424 C 25.4405,30.424 22.875,29.687 20.7305,28.447 z M 20.7305,22.413 C 18.9639,20.542 17.8291,17.998 17.8291,15.201 C 17.8291,12.447 18.9014,9.945 20.7305,8.074 C 22.5596,9.945 23.6319,12.447 23.6319,15.201 C 23.6319,17.998 22.4961,20.542 20.7305,22.413 z" />
    </g>
  </g>
</svg>
