<svg width="267" height="68" viewBox="0 0 267 68" fill="none" xmlns="http://www.w3.org/2000/svg">
<path fill-rule="evenodd" clip-rule="evenodd" d="M32.2863 45.0127C33.6128 45.0127 34.6885 43.8828 34.6885 42.4894C34.6885 41.096 33.6128 39.9661 32.2863 39.9661C30.9591 39.9661 29.8842 41.096 29.8842 42.4894C29.8842 43.8828 30.9591 45.0127 32.2863 45.0127Z" fill="white"/>
<path fill-rule="evenodd" clip-rule="evenodd" d="M32.2863 45.0127C33.6128 45.0127 34.6885 43.8828 34.6885 42.4894C34.6885 41.096 33.6128 39.9661 32.2863 39.9661C30.9591 39.9661 29.8842 41.096 29.8842 42.4894C29.8842 43.8828 30.9591 45.0127 32.2863 45.0127Z" fill="url(#paint0_linear)"/>
<path fill-rule="evenodd" clip-rule="evenodd" d="M28.4778 53.4158C28.4778 55.0652 30.1827 56.4028 32.286 56.4028C34.3893 56.4028 36.0949 55.0652 36.0949 53.4158C36.0949 51.7673 34.3893 50.4296 32.286 50.4296C30.1827 50.4296 28.4778 51.7673 28.4778 53.4158Z" fill="white"/>
<path fill-rule="evenodd" clip-rule="evenodd" d="M28.4778 53.4158C28.4778 55.0652 30.1827 56.4028 32.286 56.4028C34.3893 56.4028 36.0949 55.0652 36.0949 53.4158C36.0949 51.7673 34.3893 50.4296 32.286 50.4296C30.1827 50.4296 28.4778 51.7673 28.4778 53.4158Z" fill="url(#paint1_linear)"/>
<path fill-rule="evenodd" clip-rule="evenodd" d="M32.2863 60.5664C29.0192 60.5664 26.3713 62.2308 26.3713 64.2829C26.3713 66.3364 29.0192 68 32.2863 68C35.5527 68 38.2007 66.3364 38.2007 64.2829C38.2007 62.2308 35.5527 60.5664 32.2863 60.5664Z" fill="white"/>
<path fill-rule="evenodd" clip-rule="evenodd" d="M32.2863 60.5664C29.0192 60.5664 26.3713 62.2308 26.3713 64.2829C26.3713 66.3364 29.0192 68 32.2863 68C35.5527 68 38.2007 66.3364 38.2007 64.2829C38.2007 62.2308 35.5527 60.5664 32.2863 60.5664Z" fill="url(#paint2_linear)"/>
<path fill-rule="evenodd" clip-rule="evenodd" d="M32.2863 28.2047C33.6128 28.2047 34.6885 27.0756 34.6885 25.6815C34.6885 24.2881 33.6128 23.1589 32.2863 23.1589C30.9591 23.1589 29.8842 24.2881 29.8842 25.6815C29.8842 27.0756 30.9591 28.2047 32.2863 28.2047Z" fill="white"/>
<path fill-rule="evenodd" clip-rule="evenodd" d="M32.2863 28.2047C33.6128 28.2047 34.6885 27.0756 34.6885 25.6815C34.6885 24.2881 33.6128 23.1589 32.2863 23.1589C30.9591 23.1589 29.8842 24.2881 29.8842 25.6815C29.8842 27.0756 30.9591 28.2047 32.2863 28.2047Z" fill="url(#paint3_linear)"/>
<path fill-rule="evenodd" clip-rule="evenodd" d="M32.2863 36.6087C33.6128 36.6087 34.6885 35.4788 34.6885 34.0854C34.6885 32.6921 33.6128 31.5622 32.2863 31.5622C30.9591 31.5622 29.8842 32.6921 29.8842 34.0854C29.8842 35.4788 30.9591 36.6087 32.2863 36.6087Z" fill="white"/>
<path fill-rule="evenodd" clip-rule="evenodd" d="M32.2863 36.6087C33.6128 36.6087 34.6885 35.4788 34.6885 34.0854C34.6885 32.6921 33.6128 31.5622 32.2863 31.5622C30.9591 31.5622 29.8842 32.6921 29.8842 34.0854C29.8842 35.4788 30.9591 36.6087 32.2863 36.6087Z" fill="url(#paint4_linear)"/>
<path fill-rule="evenodd" clip-rule="evenodd" d="M32.2863 11.7688C30.1823 11.7688 28.4782 13.1057 28.4782 14.755C28.4782 16.4044 30.1823 17.7413 32.2863 17.7413C34.3896 17.7413 36.0945 16.4044 36.0945 14.755C36.0945 13.1057 34.3896 11.7688 32.2863 11.7688Z" fill="white"/>
<path fill-rule="evenodd" clip-rule="evenodd" d="M32.2863 11.7688C30.1823 11.7688 28.4782 13.1057 28.4782 14.755C28.4782 16.4044 30.1823 17.7413 32.2863 17.7413C34.3896 17.7413 36.0945 16.4044 36.0945 14.755C36.0945 13.1057 34.3896 11.7688 32.2863 11.7688Z" fill="url(#paint5_linear)"/>
<path fill-rule="evenodd" clip-rule="evenodd" d="M32.2863 7.60472C35.5527 7.60472 38.2007 5.94035 38.2007 3.88831C38.2007 1.83476 35.5527 0.171143 32.2863 0.171143C29.0192 0.171143 26.3713 1.83476 26.3713 3.88831C26.3713 5.94035 29.0192 7.60472 32.2863 7.60472Z" fill="white"/>
<path fill-rule="evenodd" clip-rule="evenodd" d="M32.2863 7.60472C35.5527 7.60472 38.2007 5.94035 38.2007 3.88831C38.2007 1.83476 35.5527 0.171143 32.2863 0.171143C29.0192 0.171143 26.3713 1.83476 26.3713 3.88831C26.3713 5.94035 29.0192 7.60472 32.2863 7.60472Z" fill="url(#paint6_linear)"/>
<path fill-rule="evenodd" clip-rule="evenodd" d="M24.2858 31.5625C22.9587 31.5625 21.8837 32.6916 21.8837 34.0857C21.8837 35.4791 22.9587 36.609 24.2858 36.609C25.6123 36.609 26.688 35.4791 26.688 34.0857C26.688 32.6916 25.6123 31.5625 24.2858 31.5625Z" fill="white"/>
<path fill-rule="evenodd" clip-rule="evenodd" d="M24.2858 31.5625C22.9587 31.5625 21.8837 32.6916 21.8837 34.0857C21.8837 35.4791 22.9587 36.609 24.2858 36.609C25.6123 36.609 26.688 35.4791 26.688 34.0857C26.688 32.6916 25.6123 31.5625 24.2858 31.5625Z" fill="url(#paint7_linear)"/>
<path fill-rule="evenodd" clip-rule="evenodd" d="M13.8836 30.0849C12.3142 30.0849 11.0407 31.8757 11.0407 34.0851C11.0407 36.2952 12.3142 38.086 13.8836 38.086C15.453 38.086 16.7264 36.2952 16.7264 34.0851C16.7264 31.8757 15.453 30.0849 13.8836 30.0849Z" fill="white"/>
<path fill-rule="evenodd" clip-rule="evenodd" d="M13.8836 30.0849C12.3142 30.0849 11.0407 31.8757 11.0407 34.0851C11.0407 36.2952 12.3142 38.086 13.8836 38.086C15.453 38.086 16.7264 36.2952 16.7264 34.0851C16.7264 31.8757 15.453 30.0849 13.8836 30.0849Z" fill="url(#paint8_linear)"/>
<path fill-rule="evenodd" clip-rule="evenodd" d="M3.53799 27.8725C1.58375 27.8725 0 30.6539 0 34.0851C0 37.5169 1.58375 40.2984 3.53799 40.2984C5.49295 40.2984 7.07669 37.5169 7.07669 34.0851C7.07669 30.6539 5.49295 27.8725 3.53799 27.8725Z" fill="white"/>
<path fill-rule="evenodd" clip-rule="evenodd" d="M3.53799 27.8725C1.58375 27.8725 0 30.6539 0 34.0851C0 37.5169 1.58375 40.2984 3.53799 40.2984C5.49295 40.2984 7.07669 37.5169 7.07669 34.0851C7.07669 30.6539 5.49295 27.8725 3.53799 27.8725Z" fill="url(#paint9_linear)"/>
<path fill-rule="evenodd" clip-rule="evenodd" d="M42.6886 34.0854C42.6886 32.692 41.613 31.5621 40.2865 31.5621C38.96 31.5621 37.8843 32.692 37.8843 34.0854C37.8843 35.4787 38.96 36.6086 40.2865 36.6086C41.613 36.6086 42.6886 35.4787 42.6886 34.0854Z" fill="white"/>
<path fill-rule="evenodd" clip-rule="evenodd" d="M42.6886 34.0854C42.6886 32.692 41.613 31.5621 40.2865 31.5621C38.96 31.5621 37.8843 32.692 37.8843 34.0854C37.8843 35.4787 38.96 36.6086 40.2865 36.6086C41.613 36.6086 42.6886 35.4787 42.6886 34.0854Z" fill="url(#paint10_linear)"/>
<path fill-rule="evenodd" clip-rule="evenodd" d="M50.6884 38.0863C52.2585 38.0863 53.532 36.2947 53.532 34.0854C53.532 31.876 52.2585 30.0852 50.6884 30.0852C49.119 30.0852 47.8455 31.876 47.8455 34.0854C47.8455 36.2947 49.119 38.0863 50.6884 38.0863Z" fill="white"/>
<path fill-rule="evenodd" clip-rule="evenodd" d="M50.6884 38.0863C52.2585 38.0863 53.532 36.2947 53.532 34.0854C53.532 31.876 52.2585 30.0852 50.6884 30.0852C49.119 30.0852 47.8455 31.876 47.8455 34.0854C47.8455 36.2947 49.119 38.0863 50.6884 38.0863Z" fill="url(#paint11_linear)"/>
<path fill-rule="evenodd" clip-rule="evenodd" d="M61.034 27.8725C59.0797 27.8725 57.496 30.6539 57.496 34.0851C57.496 37.5169 59.0797 40.2984 61.034 40.2984C62.9889 40.2984 64.572 37.5169 64.572 34.0851C64.572 30.6539 62.9889 27.8725 61.034 27.8725Z" fill="white"/>
<path fill-rule="evenodd" clip-rule="evenodd" d="M61.034 27.8725C59.0797 27.8725 57.496 30.6539 57.496 34.0851C57.496 37.5169 59.0797 40.2984 61.034 40.2984C62.9889 40.2984 64.572 37.5169 64.572 34.0851C64.572 30.6539 62.9889 27.8725 61.034 27.8725Z" fill="url(#paint12_linear)"/>
<path fill-rule="evenodd" clip-rule="evenodd" d="M16.5807 23.2456C17.6908 24.4116 19.7962 24.0909 21.2832 22.5282C22.771 20.9662 23.0762 18.7538 21.9669 17.5878C20.8569 16.4217 18.7507 16.7424 17.263 18.3052C15.776 19.8672 15.47 22.0795 16.5807 23.2456Z" fill="white"/>
<path fill-rule="evenodd" clip-rule="evenodd" d="M16.5807 23.2456C17.6908 24.4116 19.7962 24.0909 21.2832 22.5282C22.771 20.9662 23.0762 18.7538 21.9669 17.5878C20.8569 16.4217 18.7507 16.7424 17.263 18.3052C15.776 19.8672 15.47 22.0795 16.5807 23.2456Z" fill="url(#paint13_linear)"/>
<path fill-rule="evenodd" clip-rule="evenodd" d="M14.4602 15.3606C16.7706 12.9345 17.5224 9.79091 16.1407 8.33882C14.7591 6.88749 11.7657 7.67789 9.45675 10.1041C7.14635 12.5302 6.39389 15.6745 7.77626 17.1259C9.15792 18.5772 12.1506 17.7868 14.4602 15.3606Z" fill="white"/>
<path fill-rule="evenodd" clip-rule="evenodd" d="M14.4602 15.3606C16.7706 12.9345 17.5224 9.79091 16.1407 8.33882C14.7591 6.88749 11.7657 7.67789 9.45675 10.1041C7.14635 12.5302 6.39389 15.6745 7.77626 17.1259C9.15792 18.5772 12.1506 17.7868 14.4602 15.3606Z" fill="url(#paint14_linear)"/>
<path fill-rule="evenodd" clip-rule="evenodd" d="M47.9919 44.9251C46.8812 43.7591 44.7764 44.0805 43.2887 45.6425C41.801 47.2053 41.4957 49.4169 42.6051 50.5837C43.7158 51.749 45.822 51.4283 47.309 49.8656C48.796 48.3036 49.102 46.0919 47.9919 44.9251Z" fill="white"/>
<path fill-rule="evenodd" clip-rule="evenodd" d="M47.9919 44.9251C46.8812 43.7591 44.7764 44.0805 43.2887 45.6425C41.801 47.2053 41.4957 49.4169 42.6051 50.5837C43.7158 51.749 45.822 51.4283 47.309 49.8656C48.796 48.3036 49.102 46.0919 47.9919 44.9251Z" fill="url(#paint15_linear)"/>
<path fill-rule="evenodd" clip-rule="evenodd" d="M50.1117 52.8102C47.802 55.2371 47.0503 58.3799 48.4312 59.832C49.8136 61.2833 52.8062 60.4929 55.1159 58.0667C57.4256 55.6406 58.1781 52.497 56.7964 51.0449C55.414 49.5943 52.4221 50.384 50.1117 52.8102Z" fill="white"/>
<path fill-rule="evenodd" clip-rule="evenodd" d="M50.1117 52.8102C47.802 55.2371 47.0503 58.3799 48.4312 59.832C49.8136 61.2833 52.8062 60.4929 55.1159 58.0667C57.4256 55.6406 58.1781 52.497 56.7964 51.0449C55.414 49.5943 52.4221 50.384 50.1117 52.8102Z" fill="url(#paint16_linear)"/>
<path fill-rule="evenodd" clip-rule="evenodd" d="M47.9919 23.2456C49.102 22.0795 48.796 19.8672 47.309 18.3052C45.822 16.7424 43.7158 16.4217 42.6051 17.5878C41.4957 18.7538 41.801 20.9662 43.2887 22.5282C44.7764 24.0909 46.8812 24.4116 47.9919 23.2456Z" fill="white"/>
<path fill-rule="evenodd" clip-rule="evenodd" d="M47.9919 23.2456C49.102 22.0795 48.796 19.8672 47.309 18.3052C45.822 16.7424 43.7158 16.4217 42.6051 17.5878C41.4957 18.7538 41.801 20.9662 43.2887 22.5282C44.7764 24.0909 46.8812 24.4116 47.9919 23.2456Z" fill="url(#paint17_linear)"/>
<path fill-rule="evenodd" clip-rule="evenodd" d="M48.4314 8.33912C47.0498 9.79046 47.8022 12.934 50.1119 15.3609C52.4216 17.7871 55.4142 18.5775 56.7966 17.1254C58.1783 15.6741 57.4258 12.5305 55.1161 10.1044C52.8057 7.67819 49.8138 6.88779 48.4314 8.33912Z" fill="white"/>
<path fill-rule="evenodd" clip-rule="evenodd" d="M48.4314 8.33912C47.0498 9.79046 47.8022 12.934 50.1119 15.3609C52.4216 17.7871 55.4142 18.5775 56.7966 17.1254C58.1783 15.6741 57.4258 12.5305 55.1161 10.1044C52.8057 7.67819 49.8138 6.88779 48.4314 8.33912Z" fill="url(#paint18_linear)"/>
<path fill-rule="evenodd" clip-rule="evenodd" d="M16.5807 44.9251C15.47 46.0919 15.776 48.3036 17.263 49.8656C18.7507 51.4283 20.8569 51.749 21.9669 50.5837C23.0762 49.4169 22.771 47.2053 21.2832 45.6425C19.7962 44.0805 17.6908 43.7591 16.5807 44.9251Z" fill="white"/>
<path fill-rule="evenodd" clip-rule="evenodd" d="M16.5807 44.9251C15.47 46.0919 15.776 48.3036 17.263 49.8656C18.7507 51.4283 20.8569 51.749 21.9669 50.5837C23.0762 49.4169 22.771 47.2053 21.2832 45.6425C19.7962 44.0805 17.6908 43.7591 16.5807 44.9251Z" fill="url(#paint19_linear)"/>
<path fill-rule="evenodd" clip-rule="evenodd" d="M7.77612 51.0451C6.39375 52.4972 7.1462 55.64 9.45661 58.0669C11.7656 60.4931 14.7589 61.2835 16.1406 59.8321C17.523 58.38 16.7705 55.2365 14.4601 52.8103C12.1504 50.3841 9.15778 49.5937 7.77612 51.0451Z" fill="white"/>
<path fill-rule="evenodd" clip-rule="evenodd" d="M7.77612 51.0451C6.39375 52.4972 7.1462 55.64 9.45661 58.0669C11.7656 60.4931 14.7589 61.2835 16.1406 59.8321C17.523 58.38 16.7705 55.2365 14.4601 52.8103C12.1504 50.3841 9.15778 49.5937 7.77612 51.0451Z" fill="url(#paint20_linear)"/>
<path d="M91.4065 41.9295C96.877 41.9295 98.1102 38.2298 98.1102 38.2298L95.707 36.5223C95.707 36.5223 94.0943 38.4512 91.8492 38.4512C89.4776 38.4512 87.8649 37.0599 87.8649 33.455C87.8649 29.9451 89.2563 28.4588 92.1654 28.4588C93.2722 28.4588 96.1181 30.0083 96.1181 30.0083L97.5411 27.1308C97.5411 27.1308 95.7703 24.9489 91.533 24.9489C85.936 24.9489 83.0585 28.3956 83.0585 33.5183C83.0585 38.8623 85.8095 41.9295 91.4065 41.9295ZM107.913 41.9295C113.225 41.9295 116.514 38.6725 116.514 33.4234C116.514 28.1743 113.478 24.9489 107.913 24.9489C102.348 24.9489 99.3435 28.1743 99.3435 33.4234C99.3435 38.6725 102.348 41.9295 107.913 41.9295ZM107.913 38.4512C105.13 38.4512 104.118 36.4274 104.118 33.3918C104.118 30.4194 105.13 28.4588 107.913 28.4588C110.696 28.4588 111.739 30.451 111.739 33.4234C111.739 36.4274 110.696 38.4512 107.913 38.4512ZM128.846 41.3287L134.791 25.5181H129.668L126.348 37.0915H126.19L122.87 25.5181H117.715L123.692 41.3287H128.846ZM141.432 22.6405V18.8143H137.321V22.6405H141.432ZM141.716 41.3287V25.5181H137.068V41.3287H141.716ZM152.151 41.9295C155.345 41.9295 156.515 40.2536 156.863 39.5579L157.337 41.3287H161.448V17.6127H156.799V26.8778H156.673C156.673 26.8778 155.535 24.9489 152.151 24.9489C147.534 24.9489 144.752 28.617 144.752 33.7712C144.752 38.5777 147.724 41.9295 152.151 41.9295ZM153.542 38.2931C150.76 38.2931 149.527 36.8385 149.527 33.6448C149.527 30.4826 150.728 28.5537 153.732 28.5537C156.199 28.5537 156.768 30.198 156.799 30.2929V36.0796C156.736 36.2693 156.072 38.2931 153.542 38.2931ZM173.021 41.9295C178.334 41.9295 181.622 38.6725 181.622 33.4234C181.622 28.1743 178.587 24.9489 173.021 24.9489C167.456 24.9489 164.452 28.1743 164.452 33.4234C164.452 38.6725 167.456 41.9295 173.021 41.9295ZM173.021 38.4512C170.239 38.4512 169.227 36.4274 169.227 33.3918C169.227 30.4194 170.239 28.4588 173.021 28.4588C175.804 28.4588 176.847 30.451 176.847 33.4234C176.847 36.4274 175.804 38.4512 173.021 38.4512ZM191.52 49.8349C197.623 49.8349 199.836 47.4317 199.836 44.0166C199.836 40.6014 197.243 38.5777 191.33 38.5777H191.235C190.951 38.5461 190.287 38.3247 190.287 37.5026C190.287 36.9018 190.508 36.6804 190.634 36.5855H191.33C195.789 36.5855 198.476 34.8464 198.476 30.9253C198.476 28.2059 197.243 26.4351 195.125 25.5813L197.117 21.8184L193.575 21.344L192.31 24.9805C192.026 24.9805 191.709 24.9489 191.425 24.9489C187.156 24.9489 183.867 26.7829 183.867 30.9253C183.867 33.4866 185.164 35.131 187.314 35.9531C186.84 36.3958 186.524 36.965 186.524 37.6923C186.524 38.2615 186.682 38.7674 186.903 39.1785C184.405 40.0006 183.014 41.645 183.014 44.0166C183.014 47.4633 185.354 49.8349 191.52 49.8349ZM191.235 33.8345C189.369 33.8345 188.168 33.0123 188.168 30.9253C188.168 28.617 189.464 27.8897 191.235 27.8897C193.006 27.8897 194.176 28.617 194.176 30.8305C194.176 32.9491 193.101 33.8345 191.235 33.8345ZM191.52 46.6411C188.484 46.6411 187.314 45.7241 187.314 44.0166C187.314 42.309 188.516 41.5817 191.298 41.5817H191.33C194.366 41.5817 195.536 42.2774 195.536 43.9849C195.536 45.6292 194.492 46.6411 191.52 46.6411ZM206.382 41.3287V30.9886C206.382 30.9886 207.267 29.028 209.323 29.028C209.987 29.028 211.441 29.4707 211.441 29.4707L212.327 25.7394C212.327 25.7394 211.757 24.9489 209.734 24.9489C207.204 24.9489 206.255 27.0043 206.002 27.7632L205.402 25.5181H201.733V41.3287H206.382ZM219.22 41.9295C222.477 41.9295 223.489 40.1271 223.805 39.3682L224.469 41.3287H228.327V31.115C228.327 26.7197 225.734 24.9489 221.117 24.9489C215.963 24.9489 214.54 27.858 214.54 27.858L217.165 30.0083C217.165 30.0083 218.24 28.4905 220.643 28.4905C222.572 28.4905 223.71 29.1861 223.71 31.2099V31.2732C219.884 31.5261 213.402 32.8858 213.402 37.3445C213.402 40.0639 215.584 41.9295 219.22 41.9295ZM220.611 38.6093C218.935 38.6093 217.955 37.9453 217.955 36.6172C217.955 34.9412 220.422 34.3088 223.71 34.0242V36.5223C223.71 36.5223 223.268 38.6093 220.611 38.6093ZM237.782 41.3287V29.2494H242.588V25.5181H237.782V23.7473C237.782 21.7235 238.414 20.933 239.521 20.933C240.217 20.933 241.861 21.3757 241.861 21.3757L242.778 18.6246C242.778 18.6246 241.829 17.2965 238.762 17.2965C234.493 17.2965 233.133 19.6997 233.133 23.2729V25.5497L231.331 26.1505V29.2494H233.133V41.3287H237.782ZM248.944 22.6405V18.8143H244.833V22.6405H248.944ZM249.102 41.3287V25.5181H244.454V41.3287H249.102ZM257.893 41.9295C261.15 41.9295 262.162 40.1271 262.478 39.3682L263.142 41.3287H267V31.115C267 26.7197 264.407 24.9489 259.79 24.9489C254.636 24.9489 253.213 27.858 253.213 27.858L255.838 30.0083C255.838 30.0083 256.913 28.4905 259.316 28.4905C261.245 28.4905 262.383 29.1861 262.383 31.2099V31.2732C258.557 31.5261 252.075 32.8858 252.075 37.3445C252.075 40.0639 254.257 41.9295 257.893 41.9295ZM259.284 38.6093C257.608 38.6093 256.628 37.9453 256.628 36.6172C256.628 34.9412 259.095 34.3088 262.383 34.0242V36.5223C262.383 36.5223 261.941 38.6093 259.284 38.6093Z" fill="url(#paint21_linear)"/>
<defs>
<linearGradient id="paint0_linear" x1="-28.15" y1="38.921" x2="7.7316" y2="120.555" gradientUnits="userSpaceOnUse">
<stop stop-color="#FA6400"/>
<stop offset="1" stop-color="#6B68FC"/>
</linearGradient>
<linearGradient id="paint1_linear" x1="-28.15" y1="38.921" x2="7.7316" y2="120.555" gradientUnits="userSpaceOnUse">
<stop stop-color="#FA6400"/>
<stop offset="1" stop-color="#6B68FC"/>
</linearGradient>
<linearGradient id="paint2_linear" x1="-28.15" y1="38.921" x2="7.7316" y2="120.555" gradientUnits="userSpaceOnUse">
<stop stop-color="#FA6400"/>
<stop offset="1" stop-color="#6B68FC"/>
</linearGradient>
<linearGradient id="paint3_linear" x1="-28.15" y1="38.921" x2="7.7316" y2="120.555" gradientUnits="userSpaceOnUse">
<stop stop-color="#FA6400"/>
<stop offset="1" stop-color="#6B68FC"/>
</linearGradient>
<linearGradient id="paint4_linear" x1="-28.15" y1="38.921" x2="7.7316" y2="120.555" gradientUnits="userSpaceOnUse">
<stop stop-color="#FA6400"/>
<stop offset="1" stop-color="#6B68FC"/>
</linearGradient>
<linearGradient id="paint5_linear" x1="-28.15" y1="38.921" x2="7.7316" y2="120.555" gradientUnits="userSpaceOnUse">
<stop stop-color="#FA6400"/>
<stop offset="1" stop-color="#6B68FC"/>
</linearGradient>
<linearGradient id="paint6_linear" x1="-28.15" y1="38.921" x2="7.7316" y2="120.555" gradientUnits="userSpaceOnUse">
<stop stop-color="#FA6400"/>
<stop offset="1" stop-color="#6B68FC"/>
</linearGradient>
<linearGradient id="paint7_linear" x1="-28.15" y1="38.921" x2="7.7316" y2="120.555" gradientUnits="userSpaceOnUse">
<stop stop-color="#FA6400"/>
<stop offset="1" stop-color="#6B68FC"/>
</linearGradient>
<linearGradient id="paint8_linear" x1="-28.15" y1="38.921" x2="7.7316" y2="120.555" gradientUnits="userSpaceOnUse">
<stop stop-color="#FA6400"/>
<stop offset="1" stop-color="#6B68FC"/>
</linearGradient>
<linearGradient id="paint9_linear" x1="-28.15" y1="38.921" x2="7.7316" y2="120.555" gradientUnits="userSpaceOnUse">
<stop stop-color="#FA6400"/>
<stop offset="1" stop-color="#6B68FC"/>
</linearGradient>
<linearGradient id="paint10_linear" x1="-28.15" y1="38.921" x2="7.7316" y2="120.555" gradientUnits="userSpaceOnUse">
<stop stop-color="#FA6400"/>
<stop offset="1" stop-color="#6B68FC"/>
</linearGradient>
<linearGradient id="paint11_linear" x1="-28.15" y1="38.921" x2="7.7316" y2="120.555" gradientUnits="userSpaceOnUse">
<stop stop-color="#FA6400"/>
<stop offset="1" stop-color="#6B68FC"/>
</linearGradient>
<linearGradient id="paint12_linear" x1="-28.15" y1="38.921" x2="7.7316" y2="120.555" gradientUnits="userSpaceOnUse">
<stop stop-color="#FA6400"/>
<stop offset="1" stop-color="#6B68FC"/>
</linearGradient>
<linearGradient id="paint13_linear" x1="-28.15" y1="38.921" x2="7.7316" y2="120.555" gradientUnits="userSpaceOnUse">
<stop stop-color="#FA6400"/>
<stop offset="1" stop-color="#6B68FC"/>
</linearGradient>
<linearGradient id="paint14_linear" x1="-28.15" y1="38.921" x2="7.7316" y2="120.555" gradientUnits="userSpaceOnUse">
<stop stop-color="#FA6400"/>
<stop offset="1" stop-color="#6B68FC"/>
</linearGradient>
<linearGradient id="paint15_linear" x1="-28.15" y1="38.921" x2="7.7316" y2="120.555" gradientUnits="userSpaceOnUse">
<stop stop-color="#FA6400"/>
<stop offset="1" stop-color="#6B68FC"/>
</linearGradient>
<linearGradient id="paint16_linear" x1="-28.15" y1="38.921" x2="7.7316" y2="120.555" gradientUnits="userSpaceOnUse">
<stop stop-color="#FA6400"/>
<stop offset="1" stop-color="#6B68FC"/>
</linearGradient>
<linearGradient id="paint17_linear" x1="-28.15" y1="38.921" x2="7.7316" y2="120.555" gradientUnits="userSpaceOnUse">
<stop stop-color="#FA6400"/>
<stop offset="1" stop-color="#6B68FC"/>
</linearGradient>
<linearGradient id="paint18_linear" x1="-28.15" y1="38.921" x2="7.7316" y2="120.555" gradientUnits="userSpaceOnUse">
<stop stop-color="#FA6400"/>
<stop offset="1" stop-color="#6B68FC"/>
</linearGradient>
<linearGradient id="paint19_linear" x1="-28.15" y1="38.921" x2="7.7316" y2="120.555" gradientUnits="userSpaceOnUse">
<stop stop-color="#FA6400"/>
<stop offset="1" stop-color="#6B68FC"/>
</linearGradient>
<linearGradient id="paint20_linear" x1="-28.15" y1="38.921" x2="7.7316" y2="120.555" gradientUnits="userSpaceOnUse">
<stop stop-color="#FA6400"/>
<stop offset="1" stop-color="#6B68FC"/>
</linearGradient>
<linearGradient id="paint21_linear" x1="83.0585" y1="25.9096" x2="218.635" y2="25.9095" gradientUnits="userSpaceOnUse">
<stop stop-color="#C16665"/>
<stop offset="1" stop-color="#6E68F6"/>
</linearGradient>
</defs>
</svg>
