<svg width="268" height="84" viewBox="0 0 268 84" fill="none" xmlns="http://www.w3.org/2000/svg">
<path d="M49.6508 49.8004C54.0349 45.4032 54.0349 38.2739 49.6508 33.8767C45.2667 29.4797 38.1587 29.4797 33.7748 33.8767C29.3907 38.2739 29.3907 45.4032 33.7748 49.8004C38.1587 54.1976 45.2667 54.1976 49.6508 49.8004Z" fill="#54C5E6"/>
<path d="M66.9868 63.6239C66.9776 63.5603 66.9686 63.4969 66.9596 63.4334C66.9596 63.4244 66.9596 63.4154 66.9506 63.4061C66.9144 63.2159 66.8601 63.0347 66.7789 62.8442C66.7697 62.8169 66.7607 62.7988 66.7517 62.7808C66.7247 62.7264 66.7065 62.681 66.6795 62.6266C66.4805 62.2276 66.2004 61.8832 65.8568 61.6022C61.8527 57.586 57.8394 53.5607 53.8353 49.5447C57.2881 43.9963 56.6372 36.4264 51.8739 31.6577C46.3602 26.1276 37.7371 26.3 32.0245 31.2499C31.8709 31.3677 31.7172 31.5038 31.5635 31.6577C31.4008 31.8028 31.2743 31.966 31.1569 32.1201C26.2217 37.8498 26.059 46.4986 31.5635 52.0288C36.327 56.8063 43.8745 57.4592 49.3972 53.996C50.8164 55.4192 52.2353 56.8426 53.6544 58.266C44.0642 65.0924 30.1173 62.6086 24.0342 51.8746C17.5353 40.4153 23.9077 25.4568 36.6073 22.1296C43.5762 20.3074 50.8614 22.4198 56.0137 27.3788C56.348 27.7324 56.7549 28.0043 57.2157 28.1675C57.2157 28.1675 57.2247 28.1675 57.2247 28.1765C57.5593 28.2944 57.9209 28.367 58.2915 28.367C59.9635 28.367 61.3375 27.0524 61.4369 25.3934C61.5091 24.7769 61.3737 24.1332 60.9669 23.5257C60.7409 23.1632 60.4426 22.8459 60.09 22.601C55.7243 18.5396 50.3553 16.2278 44.8506 15.5841C44.8506 13.6894 44.8506 11.7856 44.8506 9.89079C46.2336 8.90264 47.1464 7.27984 47.1464 5.44855C47.1464 2.44776 44.715 0 41.7142 0C38.7222 0 36.2818 2.43871 36.2818 5.44855C36.2818 7.27984 37.1948 8.90264 38.5778 9.89079C38.5778 11.7856 38.5778 13.6803 38.5778 15.575C33.8955 16.1009 29.3671 17.8234 25.5347 20.7154C24.2331 19.4099 22.9316 18.1044 21.6299 16.7989C21.91 15.1218 21.413 13.3267 20.1204 12.0303C18.0053 9.90894 14.5616 9.90894 12.4465 12.0303C10.3314 14.1517 10.3314 17.6058 12.4465 19.7272C13.739 21.0235 15.5197 21.5223 17.2009 21.2413C18.4754 22.5196 19.7498 23.7978 21.0334 25.0851C20.0752 26.2727 19.2075 27.56 18.4392 28.9563C16.7399 32.0657 15.7547 35.3747 15.3931 38.6929C13.5492 38.6929 11.7053 38.6929 9.86135 38.6929C8.87612 37.3059 7.25817 36.3901 5.43234 36.3901C2.44047 36.3901 0 38.8288 0 41.8387C0 44.8484 2.43145 47.2872 5.43234 47.2872C7.25817 47.2872 8.87612 46.3716 9.86135 44.9845C11.7233 44.9845 13.5944 44.9845 15.4564 44.9845C16.0801 49.7986 17.9782 54.4039 20.9158 58.2479C19.5962 59.5713 18.2855 60.8859 16.9659 62.2096C15.2937 61.9286 13.504 62.4271 12.2114 63.7235C10.0964 65.8449 10.0964 69.299 12.2114 71.4204C14.3265 73.5418 17.7703 73.5418 19.8854 71.4204C21.1779 70.124 21.6751 68.338 21.395 66.6519C22.6875 65.3554 23.9891 64.05 25.2816 62.7535C28.0294 64.9746 31.2653 66.67 34.917 67.6219C36.1281 67.9392 37.3485 68.1568 38.5595 68.3019C38.5595 70.1331 38.5595 71.9643 38.5595 73.7867C37.1766 74.7747 36.2637 76.3976 36.2637 78.2288C36.2637 81.2297 38.6952 83.6774 41.6962 83.6774C44.697 83.6774 47.1284 81.2387 47.1284 78.2288C47.1284 76.3976 46.2156 74.7747 44.8326 73.7867C44.8326 71.9462 44.8326 70.106 44.8326 68.2655C49.6321 67.6673 54.2239 65.7634 58.1106 62.7535C59.2043 63.8505 60.3071 64.9566 61.4007 66.0534C61.681 66.398 62.0244 66.679 62.422 66.8785C62.4672 66.9056 62.5215 66.9239 62.5667 66.9509C62.5939 66.96 62.6119 66.9692 62.6391 66.9873C62.8198 67.0688 63.0097 67.1231 63.1904 67.1595C63.1994 67.1595 63.2174 67.1595 63.2266 67.1685C63.2899 67.1775 63.3531 67.1868 63.4073 67.1958C63.552 67.2139 63.6875 67.2319 63.8412 67.2319C65.5857 67.2319 66.9958 65.8178 66.9958 64.0681C67.0138 63.9049 67.0048 63.7688 66.9868 63.6239ZM36.2728 47.8403C32.8109 44.6853 32.8742 39.4454 35.9926 36.1001C39.2105 33.0811 44.2359 32.8816 47.4358 36.1001C50.4458 39.128 50.545 44.0689 47.7432 47.2328C47.499 47.4233 47.2731 47.6408 47.0832 47.8947C44.0462 50.6054 39.319 50.6144 36.2728 47.8403Z" fill="#374058"/>
<path d="M77.4893 43.1401V43.0705C77.4893 36.1849 82.6332 30.5394 89.9435 30.5394C93.6729 30.5394 96.1163 31.6507 98.2233 33.2778C98.6684 33.6252 99.0543 34.2104 99.0543 34.9744C99.0543 36.1552 98.1244 37.0482 96.9471 37.0482C96.3636 37.0482 95.948 36.8398 95.6712 36.6315C94.019 35.2821 92.2188 34.4486 89.9039 34.4486C85.314 34.4486 81.9307 38.2586 81.9307 43.0013V43.0705C81.9307 47.8132 85.2745 51.653 89.9039 51.653C92.456 51.653 94.1873 50.8195 95.9381 49.3313C96.2449 49.0534 96.6998 48.8451 97.2143 48.8451C98.2827 48.8451 99.2126 49.7479 99.2126 50.8195C99.2126 51.4743 98.9058 52.0002 98.5199 52.3475C96.2449 54.3517 93.653 55.6019 89.7555 55.6019C82.732 55.6019 77.4893 50.0953 77.4893 43.1401Z" fill="#374058"/>
<path d="M102.201 46.1462V46.0769C102.201 40.8481 106.346 36.5221 111.935 36.5221C117.524 36.5221 121.63 40.7786 121.63 46.0074V46.0769C121.63 51.2658 117.485 55.5918 111.866 55.5918C106.306 55.6016 102.201 51.3452 102.201 46.1462ZM117.455 46.1462V46.0769C117.455 42.8622 115.14 40.1933 111.866 40.1933C108.522 40.1933 106.376 42.8225 106.376 46.0074V46.0769C106.376 49.2617 108.691 51.9306 111.935 51.9306C115.308 51.9306 117.455 49.3014 117.455 46.1462Z" fill="#374058"/>
<path d="M132.708 55.5322H132.5C131.363 55.5322 130.601 54.808 130.116 53.6968L124.043 39.747C123.944 39.4393 123.805 39.092 123.805 38.7051C123.805 37.6633 124.735 36.7009 125.873 36.7009C127.01 36.7009 127.594 37.3557 127.94 38.219L132.629 50.3333L137.387 38.1495C137.694 37.4252 138.248 36.691 139.356 36.691C140.493 36.691 141.394 37.5541 141.394 38.6951C141.394 39.0722 141.255 39.4889 141.156 39.6972L135.082 53.6769C134.598 54.7683 133.846 55.5322 132.708 55.5322Z" fill="#374058"/>
<path d="M145.262 31.9979C145.262 30.7478 146.301 29.954 147.646 29.954C148.991 29.954 150.03 30.7478 150.03 31.9979V32.2062C150.03 33.4564 148.991 34.28 147.646 34.28C146.301 34.28 145.262 33.4465 145.262 32.2062V31.9979ZM145.579 38.8141C145.579 37.6335 146.479 36.7009 147.646 36.7009C148.823 36.7009 149.753 37.6335 149.753 38.8141V53.2801C149.753 54.4608 148.823 55.3537 147.646 55.3537C146.509 55.3537 145.579 54.4509 145.579 53.2801V38.8141Z" fill="#374058"/>
<path d="M173.107 53.2802C173.107 54.4608 172.178 55.3537 171.04 55.3537C169.863 55.3537 168.933 54.451 168.933 53.2802V52.1391C167.588 54.0442 165.688 55.5621 162.721 55.5621C158.437 55.5621 154.263 52.1391 154.263 46.077V46.0075C154.263 39.9553 158.368 36.5224 162.721 36.5224C165.718 36.5224 167.617 38.0107 168.933 39.7369V31.8096C168.933 30.6288 169.863 29.7358 171 29.7358C172.178 29.7358 173.107 30.6388 173.107 31.8096V53.2802ZM158.477 46.0075V46.077C158.477 49.6092 160.89 51.9307 163.72 51.9307C166.519 51.9307 169.002 49.5794 169.002 46.077V46.0075C169.002 42.4755 166.519 40.1537 163.72 40.1537C160.861 40.1636 158.477 42.3762 158.477 46.0075Z" fill="#374058"/>
<path d="M177.461 52.4169L186.433 32.3453C186.917 31.2737 187.778 30.6189 188.985 30.6189H189.193C190.4 30.6189 191.231 31.2737 191.715 32.3453L200.687 52.4169C200.856 52.7245 200.925 53.0421 200.925 53.3199C200.925 54.4608 200.064 55.3638 198.927 55.3638C197.928 55.3638 197.235 54.7784 196.859 53.8756L194.891 49.3412H183.159L181.121 54.0144C180.774 54.8777 180.052 55.3638 179.152 55.3638C178.044 55.3638 177.184 54.5005 177.184 53.3894C177.184 53.0719 177.282 52.7642 177.461 52.4169ZM193.268 45.561L189.025 35.7683L184.781 45.561H193.268Z" fill="#54C5E6"/>
<path d="M205.028 38.8143C205.028 37.6337 205.928 36.7009 207.096 36.7009C208.273 36.7009 209.202 37.6337 209.202 38.8143V39.9552C210.548 38.0503 212.447 36.5322 215.415 36.5322C219.697 36.5322 223.872 39.9256 223.872 46.0175V46.087C223.872 52.1392 219.729 55.5721 215.415 55.5721C212.377 55.5721 210.478 54.0441 209.202 52.3574V58.8265C209.202 60.0071 208.273 60.9 207.096 60.9C205.958 60.9 205.028 59.9972 205.028 58.8265V38.8143ZM219.628 46.0769V46.0076C219.628 42.4754 217.245 40.1537 214.417 40.1537C211.586 40.1537 209.104 42.5053 209.104 46.0076V46.0769C209.104 49.5694 211.586 51.9309 214.417 51.9309C217.275 51.9309 219.628 49.6786 219.628 46.0769Z" fill="#54C5E6"/>
<path d="M228.185 38.8143C228.185 37.6337 229.086 36.7009 230.254 36.7009C231.42 36.7009 232.36 37.6337 232.36 38.8143V39.9552C233.707 38.0503 235.606 36.5322 238.572 36.5322C242.856 36.5322 247.031 39.9256 247.031 46.0175V46.087C247.031 52.1392 242.886 55.5721 238.572 55.5721C235.536 55.5721 233.637 54.0441 232.36 52.3574V58.8265C232.36 60.0071 231.431 60.9 230.254 60.9C229.115 60.9 228.185 59.9972 228.185 58.8265V38.8143ZM242.777 46.0769V46.0076C242.777 42.4754 240.394 40.1537 237.563 40.1537C234.735 40.1537 232.251 42.5053 232.251 46.0076V46.0769C232.251 49.5694 234.735 51.9309 237.563 51.9309C240.432 51.9309 242.777 49.6786 242.777 46.0769Z" fill="#54C5E6"/>
</svg>
