<svg width="301" height="64" viewBox="0 0 301 64" fill="none" xmlns="http://www.w3.org/2000/svg">
<g clip-path="url(#clip0)">
<path d="M53.3227 35.3843C52.4106 35.3843 51.5589 35.0302 50.9126 34.3942C50.2663 33.7522 49.916 32.9061 49.916 32.0001C49.916 31.094 50.2724 30.2479 50.9126 29.6059C51.5589 28.9639 52.4106 28.6158 53.3227 28.6158C54.2347 28.6158 55.0864 28.9699 55.7327 29.6059C56.379 30.2479 56.7293 31.094 56.7293 32.0001C56.7293 32.9061 56.373 33.7522 55.7327 34.3942C55.0864 35.0302 54.2287 35.3843 53.3227 35.3843ZM53.3227 30.872C53.0207 30.872 52.7368 30.992 52.5193 31.202C52.3019 31.418 52.1871 31.7 52.1871 32.0001C52.1871 32.3001 52.3079 32.5821 52.5193 32.7981C52.7368 33.0141 53.0207 33.1281 53.3227 33.1281C53.6247 33.1281 53.9086 33.0081 54.126 32.7981C54.3435 32.5821 54.4582 32.3001 54.4582 32.0001C54.4582 31.7 54.3374 31.418 54.126 31.202C53.9146 30.986 53.6247 30.872 53.3227 30.872Z" fill="#EB5867"/>
<path d="M60.5527 28.2018C59.6829 28.2018 58.807 27.8718 58.1426 27.2117C56.8138 25.8916 56.8138 23.7435 58.1426 22.4234C58.7889 21.7814 59.6406 21.4333 60.5527 21.4333C61.4647 21.4333 62.3164 21.7874 62.9627 22.4234C63.609 23.0655 63.9593 23.9115 63.9593 24.8176C63.9593 25.7236 63.6029 26.5697 62.9627 27.2117C62.2983 27.8718 61.4224 28.2018 60.5527 28.2018ZM60.5527 23.6895C60.2506 23.6895 59.9668 23.8095 59.7493 24.0195C59.3084 24.4575 59.3084 25.1776 59.7493 25.6156C60.1902 26.0536 60.9151 26.0536 61.356 25.6156C61.5734 25.3996 61.6882 25.1176 61.6882 24.8176C61.6882 24.5175 61.5674 24.2355 61.356 24.0195C61.1386 23.8035 60.8547 23.6895 60.5527 23.6895Z" fill="#EB5867"/>
<path d="M46.0927 42.5667C45.1806 42.5667 44.329 42.2126 43.6827 41.5766C43.0364 40.9345 42.686 40.0885 42.686 39.1824C42.686 38.2764 43.0424 37.4303 43.6827 36.7883C44.329 36.1462 45.1806 35.7982 46.0927 35.7982C47.0048 35.7982 47.8564 36.1522 48.5027 36.7883C49.149 37.4303 49.4994 38.2764 49.4994 39.1824C49.4994 40.0885 49.143 40.9345 48.5027 41.5766C47.8564 42.2126 46.9987 42.5667 46.0927 42.5667ZM46.0927 38.0544C45.7907 38.0544 45.5068 38.1744 45.2894 38.3844C45.0719 38.6004 44.9571 38.8824 44.9571 39.1824C44.9571 39.4825 45.0779 39.7645 45.2894 39.9805C45.5068 40.1965 45.7907 40.3105 46.0927 40.3105C46.3947 40.3105 46.6786 40.1905 46.896 39.9805C47.1135 39.7645 47.2282 39.4825 47.2282 39.1824C47.2282 38.8824 47.1074 38.6004 46.896 38.3844C46.6786 38.1684 46.3947 38.0544 46.0927 38.0544Z" fill="#EB5867"/>
<path d="M60.5527 42.5667C59.6406 42.5667 58.7889 42.2126 58.1426 41.5766C56.8138 40.2565 56.8138 38.1084 58.1426 36.7883C58.7889 36.1462 59.6406 35.7982 60.5527 35.7982C61.4647 35.7982 62.3164 36.1522 62.9627 36.7883C63.609 37.4303 63.9593 38.2764 63.9593 39.1824C63.9593 40.0885 63.6029 40.9345 62.9627 41.5766C62.3164 42.2126 61.4587 42.5667 60.5527 42.5667ZM59.7493 39.9805C59.9668 40.1965 60.2506 40.3105 60.5527 40.3105C60.8547 40.3105 61.1386 40.1905 61.356 39.9805C61.5734 39.7645 61.6882 39.4825 61.6882 39.1824C61.6882 38.8824 61.5674 38.6004 61.356 38.3844C61.1386 38.1684 60.8547 38.0544 60.5527 38.0544C60.2506 38.0544 59.9668 38.1744 59.7493 38.3844C59.3023 38.8224 59.3023 39.5365 59.7493 39.9805Z" fill="#EB5867"/>
<path d="M46.0927 28.2018C45.2229 28.2018 44.3471 27.8718 43.6827 27.2117C43.0364 26.5697 42.686 25.7236 42.686 24.8176C42.686 23.9115 43.0424 23.0655 43.6827 22.4234C44.329 21.7814 45.1806 21.4333 46.0927 21.4333C47.0048 21.4333 47.8564 21.7874 48.5027 22.4234C49.149 23.0655 49.4994 23.9115 49.4994 24.8176C49.4994 25.7236 49.143 26.5697 48.5027 27.2117C47.8383 27.8718 46.9625 28.2018 46.0927 28.2018ZM45.2894 25.6156C45.7303 26.0536 46.4551 26.0536 46.896 25.6156C47.1135 25.3996 47.2282 25.1176 47.2282 24.8176C47.2282 24.5175 47.1074 24.2355 46.896 24.0195C46.6786 23.8035 46.3947 23.6895 46.0927 23.6895C45.7907 23.6895 45.5068 23.8095 45.2894 24.0195C45.0719 24.2355 44.9571 24.5175 44.9571 24.8176C44.9571 25.1176 45.0719 25.3996 45.2894 25.6156Z" fill="#EB5867"/>
<path d="M53.3226 22.9694C52.7186 22.9694 52.1448 22.7354 51.7159 22.3094C51.2871 21.8834 51.0515 21.3133 51.0515 20.7133C51.0515 19.4712 52.0723 18.4572 53.3226 18.4572C54.5729 18.4572 55.5937 19.4712 55.5937 20.7133C55.5937 21.9554 54.5729 22.9694 53.3226 22.9694Z" fill="#1B1D1C"/>
<path d="M53.3226 45.4289C52.0723 45.4289 51.0515 44.4148 51.0515 43.1728C51.0515 41.9307 52.0723 40.9166 53.3226 40.9166C54.5729 40.9166 55.5937 41.9307 55.5937 43.1728C55.5937 44.4148 54.5729 45.4289 53.3226 45.4289Z" fill="#1B1D1C"/>
<path d="M64.5694 34.2562C63.3191 34.2562 62.2983 33.2421 62.2983 32C62.2983 30.758 63.3191 29.7439 64.5694 29.7439C65.8198 29.7439 66.8405 30.758 66.8405 32C66.8405 33.2421 65.8198 34.2562 64.5694 34.2562Z" fill="#1B1D1C"/>
<path d="M42.0758 34.2562C40.8255 34.2562 39.8047 33.2421 39.8047 32C39.8047 30.758 40.8255 29.7439 42.0758 29.7439C43.3261 29.7439 44.3469 30.758 44.3469 32C44.3469 33.2421 43.3261 34.2562 42.0758 34.2562Z" fill="#1B1D1C"/>
<path d="M70.3621 30.8719H71.4614C71.3587 29.2098 71.0325 27.5957 70.4949 26.0536L69.4741 26.4796L68.5923 24.3975L69.6131 23.9715C68.9124 22.5674 68.0185 21.2533 66.9494 20.0532L66.1702 20.8273L64.5635 19.2312L65.3427 18.4571C64.0863 17.353 62.7031 16.441 61.2293 15.7329L60.8125 16.753L58.7106 15.901L59.1273 14.8809C57.6294 14.3829 56.065 14.0768 54.4583 13.9808V15.0729H52.1872V13.9808C50.514 14.0828 48.8892 14.4069 47.3369 14.9409L47.7658 15.955L45.6698 16.831L45.241 15.817C43.8276 16.513 42.5048 17.401 41.2967 18.4631L42.0759 19.2372L40.4692 20.8273L39.6901 20.0532C38.5787 21.3013 37.6606 22.6754 36.9478 24.1395L37.9746 24.5535L37.1169 26.6416L36.0901 26.2276C35.5888 27.7157 35.2807 29.2698 35.1841 30.8659H36.2834V33.122H35.1841C35.2868 34.7841 35.6129 36.3982 36.1505 37.9403L37.1713 37.5143L38.0532 39.5964L37.0324 40.0225C37.733 41.4265 38.627 42.7406 39.6961 43.9407L40.4692 43.1727L42.0759 44.7688L41.2967 45.5428C42.5531 46.6469 43.9363 47.5589 45.4101 48.267L45.8269 47.2469L47.9288 48.099L47.5121 49.119C49.01 49.6171 50.5744 49.9231 52.1811 50.0191V48.927H54.4522V50.0191C56.1254 49.9171 57.7502 49.5931 59.3025 49.059L58.8736 48.045L60.9696 47.1689L61.3984 48.183C62.8118 47.4869 64.1346 46.5989 65.3427 45.5368L64.5635 44.7628L66.1702 43.1667L66.9494 43.9407C68.0607 42.6926 68.9789 41.3185 69.6916 39.8545L68.6648 39.4404L69.5225 37.3523L70.5493 37.7663C71.0506 36.2782 71.3587 34.7241 71.4553 33.128H70.356V30.8719H70.3621ZM64.5695 43.1727C61.5676 46.1548 57.569 47.799 53.3227 47.799C49.0765 47.799 45.0779 46.1548 42.0759 43.1727C39.074 40.1905 37.4189 36.2182 37.4189 32C37.4189 27.7817 39.074 23.8094 42.0759 20.8273C45.0779 17.8391 49.0704 16.201 53.3227 16.201C57.569 16.201 61.5676 17.8451 64.5695 20.8273C67.5715 23.8094 69.2265 27.7817 69.2265 32C69.2265 36.2182 67.5715 40.1845 64.5695 43.1727Z" fill="#1B1D1C"/>
<path d="M68.5923 24.3975L69.4681 26.4796L70.4949 26.0536L71.5641 25.6035L72.005 26.6476L74.1009 25.7716L72.3372 21.6073L70.2473 22.4834L70.6882 23.5214L69.6131 23.9714L68.5923 24.3975Z" fill="#1B1D1C"/>
<path d="M36.398 41.5166L35.9571 40.4725L37.0262 40.0285L38.053 39.5964L37.1711 37.5203L36.1504 37.9463L35.0752 38.3904L34.6343 37.3523L32.5383 38.2283L34.3021 42.3866L36.398 41.5166Z" fill="#1B1D1C"/>
<path d="M61.8513 49.2511L61.3983 48.183L60.9695 47.1689L58.8796 48.045L59.3084 49.0591L59.7554 50.1211L58.7104 50.5592L59.5923 52.6413L63.7782 50.8892L62.8963 48.813L61.8513 49.2511Z" fill="#1B1D1C"/>
<path d="M44.7879 14.7489L45.2409 15.8109L45.6698 16.831L47.7657 15.9549L47.3369 14.9409L46.8838 13.8728L47.9288 13.4348L47.053 11.3586L42.8611 13.1048L43.7429 15.1869L44.7879 14.7489Z" fill="#1B1D1C"/>
<path d="M71.6303 38.2043L70.5552 37.7663L69.5284 37.3523L68.6707 39.4404L69.6975 39.8544L70.7726 40.2925L70.3438 41.3365L72.4458 42.1886L74.1672 38.0123L72.0592 37.1603L71.6303 38.2043Z" fill="#1B1D1C"/>
<path d="M34.1934 21.8053L32.478 25.9876L34.58 26.8396L35.0089 25.7955L36.084 26.2276L37.1108 26.6476L37.9746 24.5595L36.9478 24.1394L35.8666 23.7014L36.2954 22.6574L34.1934 21.8053Z" fill="#1B1D1C"/>
<path d="M47.5119 49.1191L47.9347 48.099L45.8267 47.2469L45.4099 48.267L44.969 49.3351L43.918 48.9091L43.0603 50.9972L47.2703 52.7073L48.128 50.6132L47.077 50.1871L47.5119 49.1191Z" fill="#1B1D1C"/>
<path d="M58.7104 15.901L60.8124 16.7531L61.2291 15.733L61.6701 14.6589L62.7211 15.085L63.5788 12.9968L59.3748 11.2927L58.5171 13.3809L59.5681 13.8069L59.1271 14.8809L58.7104 15.901Z" fill="#1B1D1C"/>
<path d="M66.9492 20.0532L70.1927 16.837L71.7994 18.4331L73.4061 16.837L68.5861 12.0487L66.9794 13.6448L68.5861 15.2409L65.3425 18.4571L64.5693 19.2312L66.176 20.8273L66.9492 20.0532Z" fill="#1B1D1C"/>
<path d="M39.6899 43.9467L36.4524 47.1629L34.8457 45.5668L33.239 47.1629L38.0591 51.9511L39.6658 50.355L38.0591 48.759L41.2966 45.5428L42.0758 44.7687L40.4691 43.1726L39.6899 43.9467Z" fill="#1B1D1C"/>
<path d="M70.1927 47.1629L66.9492 43.9467L66.176 43.1726L64.5693 44.7687L65.3425 45.5428L68.5861 48.759L66.9794 50.355L68.5861 51.9511L73.4061 47.1629L71.7994 45.5668L70.1927 47.1629Z" fill="#1B1D1C"/>
<path d="M38.0591 15.2409L39.6658 13.6448L38.0591 12.0487L33.239 16.837L34.8457 18.4331L36.4524 16.837L39.6899 20.0532L40.4691 20.8273L42.0758 19.2312L41.2966 18.4571L38.0591 15.2409Z" fill="#1B1D1C"/>
<path d="M76.0396 28.6097V30.8719H71.4611H70.3618V33.128H71.4611H76.0396V35.3842H78.3167V28.6097H76.0396Z" fill="#1B1D1C"/>
<path d="M36.2772 33.128V30.8719H35.1779H30.5995V28.6097H28.3284V35.3842H30.5995V33.128H35.1779H36.2772Z" fill="#1B1D1C"/>
<path d="M54.4582 50.0191V48.927H52.1871V50.0191V54.5733H49.9099V56.8295H56.7293V54.5733H54.4582V50.0191Z" fill="#1B1D1C"/>
<path d="M49.9099 9.42655H52.1871V13.9748V15.0669H54.4582V13.9748V9.42655H56.7293V7.17041H49.9099V9.42655Z" fill="#1B1D1C"/>
<path d="M0 34.7902V29.3418H7.53814C8.99986 29.3418 10.2019 29.2218 11.1381 28.9698C12.0743 28.7178 12.7931 28.3218 13.2944 27.7757C13.7958 27.2357 14.128 26.5277 14.285 25.6696C14.4421 24.8055 14.4783 23.7555 14.3877 22.5314L13.6991 11.2987C13.6085 9.52859 13.838 7.9385 14.3877 6.53441C14.9373 5.13032 15.7588 3.93025 16.8581 2.95818C17.9514 1.98012 19.3104 1.24808 20.9352 0.744046C22.554 0.252016 24.3721 0 26.3835 0H29.47V5.44834H26.3835C24.1909 5.44834 22.5298 5.93437 21.4124 6.91243C20.2889 7.89049 19.7755 9.35458 19.8722 11.3047L20.5608 22.5374C20.6514 23.7615 20.5366 24.9316 20.2165 26.0416C19.8963 27.1577 19.4071 28.1298 18.7427 28.9698C18.0843 29.8039 17.2507 30.4759 16.242 30.9739C15.2394 31.472 14.0494 31.742 12.6783 31.79V32.132C14.0494 32.174 15.2454 32.456 16.2783 32.9781C17.3051 33.5061 18.1386 34.1961 18.7789 35.0542C19.4192 35.9182 19.8963 36.9143 20.2165 38.0544C20.5366 39.1884 20.6514 40.3705 20.5608 41.5946L19.8722 52.6953C19.7816 54.6454 20.295 56.1095 21.4124 57.0816C22.5298 58.0596 24.1849 58.5517 26.3835 58.5517H29.47V64H26.3835C24.3721 64 22.554 63.748 20.9352 63.25C19.3104 62.7459 17.9514 62.0079 16.8581 61.0358C15.7588 60.0577 14.9373 58.8697 14.3877 57.4596C13.838 56.0495 13.6085 54.4594 13.6991 52.6953L14.3877 41.6006C14.4783 40.3765 14.4421 39.3265 14.285 38.4684C14.1219 37.6043 13.7958 36.9023 13.2944 36.3563C12.787 35.8102 12.0803 35.4142 11.1683 35.1622C10.2562 34.9102 9.04214 34.7842 7.5321 34.7842H0V34.7902Z" fill="#1B1D1C"/>
<path d="M77.1694 64V58.5517H80.2559C82.4485 58.5517 84.1035 58.0656 85.227 57.0816C86.3444 56.1035 86.8578 54.6454 86.7672 52.6953L86.0786 41.5286C86.0303 40.2985 86.1572 39.1344 86.4531 38.0244C86.7491 36.9083 87.2263 35.9362 87.8907 35.0962C88.5491 34.2621 89.3886 33.5901 90.3913 33.0921C91.394 32.594 92.5839 32.324 93.955 32.27V31.934C92.5839 31.892 91.3819 31.61 90.3551 31.0819C89.3282 30.5599 88.4947 29.8699 87.8544 29.0118C87.2142 28.1478 86.743 27.1517 86.4471 26.0116C86.1511 24.8776 86.0243 23.6955 86.0726 22.4714L86.7612 11.3047C86.8518 9.35458 86.3384 7.88449 85.2209 6.91243C84.0974 5.93437 82.4424 5.44834 80.2499 5.44834H77.1633V0H80.2499C82.2612 0 84.0733 0.252016 85.6981 0.750047C87.3169 1.25408 88.6819 1.98612 89.7752 2.96419C90.8685 3.93625 91.696 5.13032 92.2456 6.54041C92.7893 7.9505 93.0188 9.5346 92.9282 11.3047L92.2456 22.4714C92.1973 23.6955 92.2456 24.7455 92.3846 25.6036C92.5235 26.4677 92.8376 27.1697 93.345 27.7157C93.8463 28.2558 94.553 28.6578 95.4711 28.9098C96.3832 29.1618 97.5972 29.2878 99.1012 29.2878H106.639V34.7362H99.1012C97.6395 34.7362 96.4436 34.8562 95.5013 35.1082C94.5651 35.3602 93.8463 35.7562 93.345 36.3023C92.8376 36.8483 92.5235 37.5563 92.3846 38.4144C92.2456 39.2785 92.2034 40.3225 92.2456 41.5526L92.9282 52.7193C93.0188 54.4894 92.7893 56.0795 92.2456 57.4836C91.696 58.8937 90.8745 60.0818 89.7752 61.0598C88.6819 62.0379 87.3169 62.7699 85.6981 63.274C84.0733 63.772 82.2612 64.024 80.2499 64.024H77.1694V64Z" fill="#1B1D1C"/>
<path d="M130.123 36.5123L129.423 40.4545H126.971L127.671 36.5123H124.754L124.053 40.4545H121.601L122.301 36.5123H120.435V34.1961H122.7L123.425 30.0258H121.232V27.7097H123.824L124.524 23.7675H126.971L126.27 27.7097H129.187L129.888 23.7675H132.334L131.634 27.7097H133.5V30.0258H131.235L130.51 34.1961H132.678V36.5123H130.123ZM128.07 34.1901L128.795 30.0198H125.877L125.152 34.1901H128.07Z" fill="#1B1D1C"/>
<path d="M134.793 27.7037H138.175V23.7615H141.672V27.7037H146.456V30.8299H141.672V36.0442C141.672 36.4463 141.787 36.7583 142.011 36.9803C142.234 37.2023 142.548 37.3163 142.953 37.3163H146.221V40.4425H142.603C141.219 40.4425 140.132 40.0525 139.347 39.2724C138.562 38.4924 138.169 37.4123 138.169 36.0382V30.8239H134.787V27.7037H134.793Z" fill="#1B1D1C"/>
<path d="M154.967 40.6826C154.079 40.6826 153.276 40.5566 152.551 40.3105C151.826 40.0645 151.21 39.7165 150.696 39.2785C150.183 38.8405 149.784 38.3004 149.507 37.6704C149.229 37.0343 149.084 36.3443 149.084 35.5822V32.5461C149.084 31.772 149.223 31.076 149.507 30.4579C149.784 29.8399 150.183 29.3059 150.696 28.8558C151.21 28.4058 151.826 28.0638 152.551 27.8238C153.276 27.5838 154.079 27.4637 154.967 27.4637C155.837 27.4637 156.628 27.5898 157.347 27.8358C158.065 28.0818 158.676 28.4298 159.189 28.8798C159.702 29.3299 160.101 29.8639 160.379 30.4879C160.657 31.112 160.796 31.808 160.796 32.5641V34.8802H152.539V35.5763C152.539 36.3503 152.75 36.9503 153.167 37.3704C153.584 37.7904 154.188 38.0064 154.961 38.0064C155.535 38.0064 156.024 37.9164 156.429 37.7304C156.833 37.5444 157.105 37.2924 157.244 36.9683H160.675C160.536 37.5264 160.288 38.0304 159.938 38.4864C159.588 38.9425 159.165 39.3325 158.669 39.6565C158.168 39.9805 157.606 40.2325 156.978 40.4125C156.356 40.5926 155.686 40.6826 154.967 40.6826ZM157.419 32.8041V32.5701C157.419 31.796 157.208 31.196 156.779 30.776C156.35 30.3559 155.746 30.1399 154.973 30.1399C154.212 30.1399 153.614 30.3499 153.191 30.776C152.768 31.202 152.551 31.79 152.551 32.5461V32.7981H157.419V32.8041Z" fill="#1B1D1C"/>
<path d="M169.083 40.6826C168.195 40.6826 167.391 40.5686 166.667 40.3345C165.942 40.1005 165.326 39.7705 164.812 39.3385C164.299 38.9065 163.9 38.3844 163.622 37.7724C163.344 37.1603 163.199 36.4763 163.199 35.7203V32.4501C163.199 31.694 163.338 31.01 163.622 30.3979C163.9 29.7859 164.299 29.2639 164.812 28.8318C165.326 28.3998 165.942 28.0638 166.667 27.8238C167.391 27.5838 168.195 27.4637 169.083 27.4637C169.862 27.4637 170.581 27.5718 171.251 27.7878C171.921 28.0038 172.513 28.3158 173.027 28.7118C173.54 29.1078 173.969 29.5999 174.307 30.1699C174.652 30.7399 174.881 31.382 175.008 32.096H171.511C171.402 31.604 171.13 31.208 170.695 30.914C170.26 30.6199 169.723 30.4759 169.083 30.4759C168.334 30.4759 167.754 30.6499 167.331 30.998C166.908 31.346 166.703 31.826 166.703 32.4441V35.7143C166.703 36.3323 166.914 36.8123 167.331 37.1483C167.754 37.4904 168.334 37.6584 169.083 37.6584C169.705 37.6584 170.236 37.5084 170.671 37.2084C171.106 36.9083 171.384 36.5063 171.511 36.0143H175.008C174.881 36.7223 174.652 37.3644 174.307 37.9404C173.963 38.5104 173.54 39.0025 173.027 39.4105C172.513 39.8185 171.921 40.1305 171.251 40.3465C170.581 40.5746 169.862 40.6826 169.083 40.6826Z" fill="#1B1D1C"/>
<path d="M177.388 23.5334H180.885V27.7037C180.885 27.9377 180.873 28.1837 180.849 28.4478C180.825 28.7118 180.801 28.9518 180.77 29.1678C180.74 29.3838 180.71 29.6298 180.68 29.9118H180.934C181.042 29.1378 181.387 28.5378 181.96 28.1177C182.534 27.6917 183.289 27.4817 184.225 27.4817C185.53 27.4817 186.563 27.9077 187.318 28.7538C188.073 29.6058 188.448 30.7639 188.448 32.228V40.4545H184.95V32.57C184.95 31.922 184.769 31.4119 184.401 31.0399C184.032 30.6679 183.543 30.4819 182.921 30.4819C182.299 30.4819 181.803 30.6679 181.441 31.0399C181.072 31.4119 180.891 31.922 180.891 32.57V40.4485H177.394V23.5334H177.388Z" fill="#1B1D1C"/>
<path d="M197.749 23.7615H201.718L194.391 33.4701V34.3281H198.825V30.9439H202.322V40.4425H198.825V37.3403H191.123V32.498L197.749 23.7615Z" fill="#1B1D1C"/>
<path d="M211.074 23.5334C211.944 23.5334 212.735 23.6595 213.454 23.9055C214.166 24.1515 214.782 24.5055 215.296 24.9615C215.809 25.4176 216.208 25.9636 216.486 26.6056C216.764 27.2477 216.909 27.9617 216.909 28.7478H213.411C213.411 28.0997 213.2 27.5897 212.783 27.2177C212.366 26.8457 211.799 26.6596 211.08 26.6596C210.349 26.6596 209.769 26.8457 209.34 27.2177C208.911 27.5897 208.7 28.0997 208.7 28.7478V35.4682C208.7 36.1162 208.905 36.6263 209.316 36.9983C209.727 37.3703 210.307 37.5563 211.056 37.5563C211.787 37.5563 212.36 37.3643 212.783 36.9803C213.206 36.5963 213.411 36.0922 213.411 35.4742H216.909C216.909 36.2602 216.77 36.9743 216.486 37.6163C216.208 38.2584 215.809 38.8044 215.296 39.2604C214.782 39.7165 214.166 40.0705 213.454 40.3165C212.741 40.5625 211.938 40.6885 211.05 40.6885C210.162 40.6885 209.364 40.5625 208.646 40.3165C207.933 40.0705 207.317 39.7165 206.803 39.2604C206.29 38.8044 205.891 38.2584 205.613 37.6163C205.336 36.9743 205.191 36.2602 205.191 35.4742V28.7538C205.191 27.9677 205.33 27.2537 205.613 26.6116C205.891 25.9696 206.29 25.4236 206.803 24.9675C207.317 24.5115 207.933 24.1635 208.658 23.9115C209.383 23.6595 210.186 23.5334 211.074 23.5334Z" fill="#1B1D1C"/>
<path d="M219.071 28.7238C219.071 27.9377 219.21 27.2237 219.494 26.5936C219.772 25.9636 220.17 25.4176 220.684 24.9615C221.197 24.5055 221.813 24.1575 222.538 23.9055C223.263 23.6535 224.066 23.5334 224.954 23.5334C225.842 23.5334 226.645 23.6595 227.37 23.9055C228.095 24.1515 228.711 24.5055 229.225 24.9615C229.738 25.4176 230.137 25.9636 230.414 26.5936C230.692 27.2297 230.837 27.9377 230.837 28.7238V35.4682C230.837 36.2422 230.692 36.9503 230.408 37.5863C230.119 38.2284 229.72 38.7744 229.206 39.2304C228.693 39.6865 228.077 40.0405 227.352 40.2985C226.627 40.5565 225.83 40.6825 224.96 40.6825C224.072 40.6825 223.269 40.5565 222.544 40.3105C221.819 40.0645 221.203 39.7105 220.69 39.2544C220.176 38.7984 219.778 38.2524 219.5 37.6103C219.222 36.9683 219.077 36.2542 219.077 35.4682V28.7238H219.071ZM222.574 35.4682C222.574 36.1342 222.786 36.6623 223.215 37.0583C223.643 37.4543 224.223 37.6523 224.954 37.6523C225.685 37.6523 226.265 37.4543 226.694 37.0583C227.123 36.6623 227.334 36.1342 227.334 35.4682V28.7238C227.334 28.0577 227.123 27.5297 226.694 27.1337C226.265 26.7376 225.685 26.5396 224.954 26.5396C224.223 26.5396 223.643 26.7376 223.215 27.1337C222.786 27.5297 222.574 28.0577 222.574 28.7238V35.4682Z" fill="#1B1D1C"/>
<path d="M232.184 23.7615H235.73L238.551 35.7862C238.611 36.0202 238.665 36.2663 238.702 36.5363C238.738 36.8063 238.774 37.0583 238.804 37.2863C238.835 37.5623 238.865 37.8444 238.895 38.1204H239.034C239.064 37.8444 239.106 37.5623 239.149 37.2863C239.179 37.0523 239.221 36.8063 239.263 36.5363C239.312 36.2663 239.354 36.0142 239.402 35.7862L242.181 23.7615H245.702L241.22 40.4485H236.557L232.184 23.7615Z" fill="#1B1D1C"/>
<path d="M247.695 40.4485V37.4363H251.193V26.7797H247.695V23.7615H258.193V26.7737H254.696V37.4363H258.193V40.4485H247.695Z" fill="#1B1D1C"/>
<path d="M261.413 40.4485V23.7615H266.939C267.827 23.7615 268.631 23.8875 269.356 24.1455C270.08 24.4035 270.696 24.7695 271.21 25.2436C271.723 25.7176 272.122 26.2936 272.4 26.9597C272.678 27.6257 272.823 28.3638 272.823 29.1858V35.0002C272.823 35.8222 272.684 36.5663 272.4 37.2383C272.122 37.9104 271.723 38.4804 271.21 38.9544C270.696 39.4285 270.08 39.7945 269.356 40.0525C268.631 40.3105 267.827 40.4485 266.939 40.4485H261.413ZM266.939 37.2023C267.652 37.2023 268.232 37.0043 268.667 36.6023C269.102 36.2003 269.319 35.6662 269.319 35.0002V29.1858C269.319 28.5378 269.102 28.0097 268.667 27.6077C268.232 27.2057 267.658 27.0077 266.939 27.0077H264.91V37.2023H266.939Z" fill="#1B1D1C"/>
<path d="M275.571 37.4363H280.071V28.6998C280.071 28.0337 280.095 27.5537 280.143 27.2657C280.161 27.0797 280.173 26.9237 280.192 26.8037H280.119C280.059 26.8817 279.968 26.9657 279.865 27.0557C279.787 27.1337 279.684 27.2237 279.551 27.3317C279.418 27.4397 279.261 27.5537 279.074 27.6797L275.782 29.7859V26.4256L279.726 23.7615H283.574V37.4363H287.12V40.4485H275.571V37.4363V37.4363Z" fill="#1B1D1C"/>
<path d="M294.936 23.5334C295.866 23.5334 296.711 23.6715 297.454 23.9415C298.203 24.2115 298.832 24.5955 299.357 25.0875C299.876 25.5796 300.281 26.1736 300.571 26.8697C300.861 27.5657 301 28.3457 301 29.2098C301 30.2779 300.776 31.3459 300.323 32.42C299.87 33.4941 299.212 34.6821 298.342 35.9782L295.31 40.4485H291.414L295.262 34.8622C295.697 34.2441 296.029 33.7581 296.264 33.4041C296.5 33.05 296.675 32.786 296.802 32.618C296.941 32.42 297.026 32.288 297.056 32.222H296.917C296.681 32.576 296.409 32.888 296.101 33.146C295.824 33.3921 295.473 33.6141 295.063 33.8061C294.652 33.9981 294.163 34.0941 293.607 34.0941C292.906 34.0941 292.266 33.9681 291.68 33.7221C291.1 33.4761 290.593 33.134 290.176 32.69C289.753 32.252 289.433 31.712 289.21 31.0819C288.986 30.4519 288.871 29.7558 288.871 28.9938C288.871 28.1777 289.016 27.4277 289.3 26.7556C289.59 26.0836 289.995 25.5076 290.526 25.0275C291.058 24.5475 291.692 24.1755 292.441 23.9175C293.184 23.6655 294.018 23.5334 294.936 23.5334ZM292.369 28.9758C292.369 29.7618 292.598 30.3859 293.057 30.8419C293.516 31.2979 294.144 31.5259 294.936 31.5259C295.715 31.5259 296.337 31.2919 296.802 30.8299C297.267 30.3679 297.503 29.7498 297.503 28.9758C297.503 28.1897 297.273 27.5657 296.814 27.1097C296.355 26.6536 295.727 26.4256 294.936 26.4256C294.144 26.4256 293.516 26.6536 293.057 27.1097C292.598 27.5657 292.369 28.1897 292.369 28.9758Z" fill="#1B1D1C"/>
</g>
<defs>
<clipPath id="clip0">
<rect width="301" height="64" fill="white"/>
</clipPath>
</defs>
</svg>
