<svg enable-background="new 0 0 903.89 734.42" viewBox="0 0 903.89 734.42" xmlns="http://www.w3.org/2000/svg">
  <g fill="#0000D8">
    <path d="m303.59 460.54c.31-.89.69-1.75.93-2.66 14.36-54.61 28.7-109.22 43.05-163.83 9.73-37.03 19.51-74.06 29.18-111.11.64-2.46 1.92-3.83 4.14-4.88 9.67-4.6 19.36-9.18 28.86-14.12 3.59-1.87 6.03-.43 9.22 1.5-1.82.91-3.24 1.64-4.68 2.35-9.04 4.41-18.06 8.88-27.15 13.18-2.07.98-3.08 2.33-3.65 4.51-15.56 59.33-31.17 118.64-46.77 177.95-11.06 42.05-22.12 84.11-33.16 126.16-1.59 6.07-.79 12.26-.78 18.4 0 .16.25.31.69.84.38-.99.78-1.78 1-2.62 7.19-27.3 14.37-54.6 21.55-81.91 14.5-55.13 29.01-110.26 43.52-165.39 6.22-23.64 12.48-47.27 18.6-70.94.66-2.55 1.87-4.05 4.24-5.16 9.3-4.38 18.61-8.74 27.7-13.54 3.73-1.97 6.69-1.64 10.15.9-1.03.58-1.9 1.13-2.82 1.58-9.52 4.66-19.02 9.37-28.61 13.9-2.28 1.08-3.39 2.57-4.02 4.98-12.71 48.55-25.5 97.08-38.27 145.62-14.61 55.55-29.21 111.1-43.82 166.65-2.89 10.98-5.89 21.94-8.61 32.96-.85 3.43-1.09 7.02-1.39 10.56-.21 2.58-.08 5.19-.04 7.79.01.8.21 1.6.32 2.39l.72.12c.31-.95.66-1.88.91-2.84 12.43-47.29 24.84-94.58 37.28-141.86 15.8-60.04 31.62-120.08 47.43-180.13 3.47-13.18 6.96-26.35 10.35-39.56.56-2.19 1.65-3.5 3.69-4.48 9.77-4.65 19.56-9.27 29.15-14.27 3.59-1.87 6.03-.5 9.25 1.45-1.72.87-3.03 1.56-4.36 2.21-8.66 4.22-17.26 8.54-26 12.58-3.02 1.39-4.59 3.26-5.44 6.53-6.62 25.66-13.45 51.27-20.2 76.89-21.86 83.06-43.72 166.11-65.57 249.17-4.05 15.38-8.09 30.75-12.08 46.15-.49 1.91-1.26 3.26-3.17 4.12-2.54 1.14-2.51 1.4-1.76 5.08 2.94-1.15 5.76-2.43 8.31-4.14.74-.5 1.02-1.84 1.29-2.86 3.01-11.29 5.97-22.59 8.94-33.89 13.42-51.05 26.84-102.1 40.27-153.15 12.69-48.22 25.41-96.44 38.11-144.66 3.69-14.02 7.4-28.03 11.02-42.06.53-2.04 1.49-3.33 3.45-4.27 9.48-4.5 18.99-8.97 28.27-13.86 3.7-1.95 6.67-1.71 10.18.91-1.12.62-2.07 1.19-3.06 1.68-9.43 4.61-18.83 9.28-28.32 13.75-2.3 1.09-3.4 2.6-4.03 5-16.54 63.09-33.14 126.17-49.74 189.24-16.13 61.3-32.29 122.59-48.38 183.9-.55 2.08-1.48 3.39-3.46 4.27-3.75 1.67-7.42 3.53-11.1 5.38-2.48 1.24-2.55 1.52-1.7 5 1-.4 1.98-.73 2.9-1.17 4.87-2.36 9.69-4.82 14.6-7.08 1.96-.9 2.95-2.15 3.5-4.24 5.77-22.19 11.64-44.36 17.48-66.54 13.9-52.83 27.8-105.65 41.7-158.48 8.18-31.07 16.36-62.13 24.54-93.2 4.88-18.51 9.79-37.02 14.57-55.56.55-2.13 1.61-3.31 3.51-4.22 9.46-4.54 18.98-8.98 28.26-13.87 3.72-1.96 6.68-1.6 10.07.85-.77.49-1.41.98-2.12 1.33-9.72 4.76-19.42 9.55-29.19 14.19-2.27 1.08-3.4 2.57-4.03 4.98-8.89 34.01-17.87 67.99-26.82 101.99-11.4 43.31-22.79 86.61-34.18 129.92-12.38 47.07-24.77 94.15-37.12 141.23-.53 2.02-1.42 3.36-3.43 4.3-7.45 3.47-14.81 7.15-22.19 10.76-2.83 1.39-2.87 1.51-2.14 4.99.7-.19 1.43-.27 2.05-.58 9.16-4.43 18.27-8.93 27.47-13.28 1.94-.92 2.55-2.4 3.03-4.24 5.86-22.39 11.75-44.78 17.64-67.17 13.76-52.3 27.53-104.61 41.29-156.91 11.56-43.93 23.14-87.86 34.7-131.79 1.51-5.75 3.11-11.49 4.49-17.27.55-2.3 1.63-3.7 3.82-4.73 9.59-4.53 19.14-9.14 28.58-13.96 2.67-1.36 4.99-1.76 7.54-.13.53.34 1.13.59 2.25 1.16-1.34.74-2.29 1.3-3.27 1.79-9.43 4.61-18.84 9.25-28.31 13.77-2.12 1.01-3.3 2.32-3.92 4.68-11.81 45.21-23.7 90.4-35.6 135.58-20.76 78.87-41.55 157.73-62.25 236.62-.78 2.98-2.14 4.77-4.99 6.11-10.87 5.09-21.62 10.47-32.4 15.75-2.82 1.39-2.86 1.53-2.11 5.14.91-.33 1.8-.57 2.62-.97 12.74-6.21 25.46-12.46 38.22-18.63 1.75-.85 2.51-2.07 2.99-3.88 7.94-30.35 15.94-60.68 23.93-91.01 12.39-47.07 24.78-94.14 37.17-141.21 12.3-46.76 24.64-93.51 36.85-140.29.82-3.13 2.33-4.92 5.25-6.28 9.12-4.24 18.11-8.78 27.15-13.19 4.53-2.21 5.19-2.14 9.89.96-1.03.57-1.93 1.1-2.87 1.56-9.53 4.66-19.03 9.35-28.61 13.9-2.16 1.02-3.26 2.42-3.87 4.73-13.26 50.64-26.59 101.27-39.91 151.89-14.69 55.86-29.39 111.72-44.09 167.57-4.71 17.89-9.48 35.76-14.11 53.67-.6 2.33-1.75 3.64-3.89 4.67-14.91 7.18-29.77 14.48-44.63 21.77-2.85 1.4-2.86 1.52-2.03 5.14 1.01-.4 1.99-.71 2.91-1.16 16.14-7.87 32.26-15.8 48.43-23.6 2.27-1.09 3.4-2.54 4.04-4.96 11.88-45.42 23.84-90.81 35.79-136.21 13.65-51.88 27.3-103.77 40.95-155.65 7.1-26.99 14.23-53.97 21.27-80.97.59-2.27 1.61-3.71 3.81-4.75 9.49-4.48 19-8.95 28.27-13.85 3.65-1.93 6.47-1.43 9.92.99-1.17.65-2.11 1.24-3.1 1.72-9.43 4.61-18.84 9.26-28.31 13.76-2.15 1.02-3.27 2.37-3.88 4.71-9.66 37.05-19.41 74.08-29.16 111.1-15.37 58.36-30.77 116.72-46.15 175.09-7.63 28.97-15.28 57.94-22.83 86.94-.61 2.33-1.69 3.67-3.85 4.71-18.7 9.04-37.35 18.18-56.01 27.31-2.84 1.39-2.86 1.48-2.15 5.24 1.42-.6 2.77-1.12 4.07-1.75 13.62-6.63 27.23-13.28 40.84-19.92 6.03-2.94 12-6.01 18.09-8.8 2.23-1.02 3.23-2.49 3.82-4.76 8.08-30.98 16.23-61.94 24.38-92.91 11.65-44.25 23.32-88.48 34.96-132.73 12.91-49.06 25.83-98.12 38.67-147.19.64-2.44 1.77-3.89 4.04-4.96 9.29-4.4 18.6-8.76 27.69-13.56 3.8-2.01 6.85-1.81 10.26.81-.78.47-1.45.95-2.19 1.31-9.62 4.71-19.22 9.46-28.9 14.05-2.36 1.12-3.62 2.6-4.28 5.16-8.81 33.81-17.71 67.59-26.6 101.38-13.98 53.14-27.96 106.28-41.95 159.41-9.83 37.34-19.7 74.67-29.48 112.03-.6 2.27-1.6 3.68-3.8 4.74-22.41 10.81-44.76 21.75-67.13 32.66-3.15 1.54-3.17 1.6-2.59 4.96 1.3.57 2.23-.4 3.23-.89 16.93-8.23 33.85-16.48 50.78-24.72 6.81-3.32 13.58-6.71 20.45-9.9 2.18-1.01 3.24-2.43 3.84-4.73 6.21-23.87 12.53-47.7 18.8-71.56 12.38-47.07 24.75-94.15 37.13-141.22 14.06-53.45 28.13-106.9 42.14-160.37.61-2.31 1.74-3.65 3.9-4.67 9.58-4.54 19.08-9.25 28.61-13.89 4.1-2 5.06-1.89 9.41 1.2-1.24.67-2.31 1.29-3.43 1.84-9.14 4.46-18.23 9.02-27.46 13.3-2.66 1.23-3.86 2.97-4.57 5.7-7.43 28.58-14.96 57.13-22.48 85.68-15.86 60.25-31.72 120.5-47.58 180.75-9.22 35.04-18.49 70.07-27.59 105.14-.8 3.07-2.32 4.7-5.07 6.03-25.81 12.47-51.57 25.07-77.33 37.64-3.51 1.71-3.52 1.77-2.56 5.35.99-.42 1.97-.77 2.9-1.22 27.52-13.41 55.03-26.85 82.58-40.2 2.25-1.09 3.44-2.5 4.07-4.94 6.87-26.38 13.85-52.73 20.79-79.09 9.28-35.25 18.56-70.5 27.83-105.75 10.26-39.02 20.51-78.04 30.77-117.06 6.27-23.85 12.58-47.69 18.79-71.56.52-2.01 1.6-3.09 3.39-3.94 9.85-4.72 19.7-9.46 29.47-14.37 2.24-1.12 4.18-1.41 6.34-.12.73.44 1.52.77 2.75 1.37-1.05.64-1.78 1.16-2.57 1.55-9.62 4.7-19.22 9.45-28.91 14.02-2.29 1.08-3.42 2.57-4.05 4.98-8.24 31.61-16.56 63.2-24.87 94.79-12.76 48.54-25.54 97.07-38.3 145.6-10.46 39.75-20.91 79.5-31.36 119.25-1.49 5.65-2.97 11.29-4.48 16.94-.27 1.02-.65 2.01-1.03 3.2-1.84-.47-3.45-.88-5.47-1.4-.15 1.4-.35 2.53-.36 3.65-.04 4.22-.19 8.45.04 12.66.15 2.79-.87 4.2-3.39 5.41-17.75 8.51-35.43 17.19-53.12 25.82-46.09 22.48-92.17 44.96-138.26 67.44-4.18 2.04-8.36 4.09-12.55 6.1-.84.41-1.75.68-2.93 1.13-.11-1.26-.25-2.19-.25-3.12-.02-6.17.08-12.34-.06-18.5-.05-2.19.8-3.28 2.69-4.2 29.19-14.18 58.35-28.42 87.52-42.65.97-.47 1.93-.98 2.92-1.41 1.25-.55 1.77-1.5 1.72-2.83-.03-.86 0-1.73 0-2.6 0-93.17 0-186.33 0-279.5 0-1.47-.09-2.94-.14-4.48-2.69.66-4.2 2.28-4.45 4.67-.14 1.29-.07 2.59-.07 3.89v271.71c0 1.08-.12 2.18.03 3.24.33 2.33-.8 3.45-2.81 4.42-16.37 7.89-32.7 15.89-49.03 23.85-13.42 6.54-26.81 13.13-40.27 19.6-2.06.99-2.82 2.26-2.76 4.52.14 5.73.05 11.47.04 17.2 0 1.04-.1 2.08-.19 3.61-2.05-.82-3.79-1.36-5.35-2.21-.57-.32-1.03-1.38-1.04-2.11-.08-6.82-.01-13.63-.08-20.45-.02-1.79 1.06-2.39 2.38-3.03 10.41-5.06 20.81-10.15 31.21-15.23 19.35-9.44 38.68-18.92 58.08-28.26 2.53-1.22 3.34-2.73 3.34-5.47-.07-87.32-.05-174.65-.06-261.97 0-1.05-.12-2.09-.2-3.25-2.45 1.29-4.5 4.25-4.69 6.65-.09 1.08-.04 2.16-.04 3.24 0 84.19 0 168.37-.01 252.56 0 5.54.42 4.31-4.06 6.51-28.76 14.08-57.57 28.07-86.33 42.14-5.01 2.45-4.41 1.44-4.44 6.97-.03 5.09-.01 10.17-.01 15.26v3.37c-2.54.1-4.27-1.22-6.48-2.24 0-1.64 0-3.35 0-5.06 0-5.3.12-10.61-.06-15.9-.08-2.34.85-3.48 2.84-4.44 14.61-7.06 29.18-14.21 43.77-21.32 14.98-7.3 29.93-14.64 44.97-21.83 2.51-1.2 3.39-2.67 3.38-5.44-.08-49.67-.06-99.34-.06-149 0-30.51 0-61.03 0-91.54 0-1.25 0-2.5 0-4.01-2.91 1.79-4.72 4.61-4.84 7.2-.05.97-.01 1.95-.01 2.92 0 77.15.01 154.3-.01 231.46 0 5.13.82 4.26-4.23 6.73-29.27 14.27-58.53 28.56-87.82 42.79-2.01.98-2.88 2.16-2.82 4.48.16 5.73.06 11.47.04 17.2 0 1.05-.1 2.09-.19 3.74-2.07-.85-3.78-1.41-5.32-2.28-.57-.32-1.01-1.39-1.01-2.12-.08-6.82-.01-13.63-.07-20.45-.02-1.76 1.03-2.4 2.37-3.05 10.42-5.05 20.81-10.14 31.22-15.22 19.16-9.34 38.32-18.68 57.47-28.02.68-.33 1.34-.72 2.03-1.01 1.26-.53 1.8-1.45 1.74-2.8-.04-.86 0-1.73 0-2.6 0-73.04 0-146.08 0-219.12 0-1.12-.09-2.24-.16-4.06-3.01 3.08-4.75 5.66-4.74 9.51.11 28.46.06 56.92.06 85.38v126.6c0 .54-.06 1.09.01 1.62.23 1.88-.62 2.9-2.32 3.72-10.44 5-20.83 10.11-31.23 15.19-19.35 9.44-38.67 18.95-58.07 28.28-2.58 1.24-3.38 2.77-3.29 5.49.19 5.4.05 10.82.05 16.23v3.35c-2.31.17-3.95-.95-5.6-1.82-.48-.25-.81-1.25-.81-1.91-.06-6.92 0-13.85-.07-20.78-.02-1.84 1.25-2.34 2.51-2.96 6.8-3.33 13.6-6.66 20.41-9.97 22.86-11.13 45.7-22.3 68.6-33.33 2.52-1.21 3.38-2.69 3.38-5.45-.08-43.72-.06-87.43-.06-131.15 0-22.51 0-45.01 0-67.52 0-1.16 0-2.33 0-3.64-2.46 1.15-4.63 4.2-4.82 6.57-.08 1.08-.03 2.16-.03 3.24v189.26c0 .54-.06 1.09.01 1.62.33 2.36-.66 3.71-2.84 4.75-10.84 5.17-21.61 10.48-32.41 15.74-18.87 9.19-37.72 18.41-56.63 27.52-2.28 1.1-3.21 2.4-3.12 4.96.18 5.51.07 11.04.05 16.55 0 1.15-.13 2.29-.23 3.99-2.32-.94-4.18-1.69-6.27-2.54 0-2.36 0-4.61 0-6.87 0-4.76.12-9.53-.05-14.28-.08-2.3.78-3.44 2.83-4.42 19.69-9.49 39.32-19.1 58.96-28.67 9.92-4.83 19.81-9.74 29.79-14.44 2.51-1.18 3.36-2.69 3.36-5.46-.08-59.3-.06-118.6-.06-177.89 0-1.06 0-2.13 0-3.32-2.35 1.01-4.62 4.17-4.82 6.52-.09 1.08-.04 2.16-.04 3.24v168.48c0 .76-.08 1.52.01 2.27.23 1.78-.59 2.73-2.17 3.49-7.62 3.64-15.18 7.37-22.77 11.07-22.17 10.81-44.33 21.65-66.55 32.36-2.5 1.21-3.53 2.62-3.42 5.41.21 5.51.07 11.04.06 16.55 0 1.05-.09 2.1-.16 3.63-1.94-.73-3.58-1.2-5.05-1.98-.6-.32-1.19-1.32-1.2-2.02-.09-7.03-.04-14.07-.07-21.1-.01-1.68 1.19-2.15 2.36-2.71 6.03-2.94 12.06-5.88 18.09-8.82 23.83-11.61 47.64-23.25 71.5-34.79 2.17-1.05 2.94-2.36 2.94-4.74-.06-52.7-.04-105.39-.05-158.09 0-.84-.11-1.68-.17-2.58-2.45 1.19-4.55 4.24-4.73 6.81-.08 1.19-.04 2.38-.04 3.57v146.73c0 .32-.05.66.01.97.52 2.95-.91 4.35-3.53 5.61-29.42 14.22-58.75 28.6-88.16 42.84-2.43 1.18-3.29 2.61-3.21 5.23.17 5.41.05 10.82.05 16.23v3.63c-2.66.1-4.37-1.29-6.52-2.25 0-3.53 0-7.09 0-10.65 0-3.35.13-6.72-.05-10.06-.13-2.37.68-3.68 2.89-4.73 11.82-5.62 23.56-11.41 35.33-17.15 17.8-8.67 35.58-17.38 53.42-25.96 2.52-1.21 3.32-2.74 3.31-5.49-.08-45.34-.06-90.68-.06-136.02 0-1.03-.1-2.05-.5-3.16-2.47 2.34-4.43 4.65-4.42 8.41.1 31.06.05 62.11.05 93.17 0 11.9-.09 23.81.07 35.71.04 2.82-.95 4.17-3.42 5.37-28.64 13.84-57.23 27.78-85.8 41.76-6.76 3.31-5.57 1.44-5.66 9.11-.06 5.19-.01 10.39-.04 15.58 0 .51-.18 1.01-.36 1.98-1.88-.77-3.63-1.28-5.14-2.2-.61-.37-.94-1.64-.95-2.5-.08-6.47.02-12.97-.08-19.46-.03-1.94.79-2.91 2.44-3.7 7.22-3.45 14.4-6.99 21.6-10.5 22.56-11 45.11-22.04 67.72-32.93 2.46-1.18 3.19-2.64 3.19-5.24-.07-39.5-.07-78.99.01-118.49.01-2.71-.83-4.43-3.14-5.8-2.97-1.76-5.77-3.82-8.63-5.77-.78-.54-1.52-1.14-2.43-1.82.55-.86.97-1.59 1.46-2.28 29.1-41.44 58.22-82.86 87.29-124.32 1.24-1.77 2.77-2.93 4.66-3.85 11.3-5.45 22.58-10.95 33.86-16.44 1.14-.55 2.23-1.19 3.26-1.75-.13-.54-.12-.84-.24-.92-3.02-1.88-3.03-1.88-2.13-5.28 13.87-52.72 27.73-105.45 41.6-158.17.83-3.14 1.71-6.26 2.46-9.42.33-1.38 1.03-2.28 2.31-2.9 10.61-5.15 21.21-10.32 31.79-15.52 1.17-.57 2.22-.66 3.39-.09 1.25.61 2.55 1.12 4.37 1.91-1.17.72-1.9 1.25-2.69 1.63-9.62 4.7-19.23 9.44-28.91 14.03-2.26 1.07-3.41 2.56-4.04 4.98-12.13 46.36-24.33 92.69-36.52 139.04-2.94 11.19-5.99 22.36-8.79 33.59-.78 3.11-1.02 6.39-1.2 9.61-.2 3.52-.05 7.07-.05 10.6.28.07.55.15.83.22.32-.79.73-1.55.94-2.37 4.39-16.63 8.75-33.27 13.12-49.9 11.45-43.52 22.9-87.03 34.35-130.55.83-3.14 1.71-6.26 2.47-9.41.33-1.36.92-2.31 2.23-2.94 10.71-5.19 21.39-10.44 32.12-15.6.77-.37 1.9-.37 2.74-.12 1.51.45 2.93 1.21 4.99 2.1-1.71.9-2.82 1.52-3.96 2.07-9.33 4.56-18.64 9.16-28.02 13.63-2.02.96-3.15 2.22-3.74 4.44-17.06 65.08-34.18 130.15-51.3 195.21-1.79 6.8-3.54 13.61-5.41 20.39-.99 3.58-1.47 7.19-1.38 10.9.06 2.6-.03 5.19.02 7.79.01.79.24 1.57.94 2.39.31-.87.69-1.72.92-2.61 7.19-27.3 14.36-54.61 21.54-81.91 13.04-49.59 26.11-99.17 39.07-148.77.81-3.11 2.27-4.95 5.2-6.31 9.23-4.27 18.43-8.63 27.41-13.39 3.71-1.96 6.44-1.05 9.84 1.08-1.24.68-2.13 1.23-3.07 1.68-9.53 4.65-19.05 9.32-28.62 13.88-2.01.96-3.19 2.19-3.78 4.42-12.25 46.81-24.58 93.59-36.88 140.38-10.56 40.17-21.12 80.34-31.63 120.53-.52 1.97-.83 4.04-.89 6.07-.13 4.28-.04 8.57-.04 12.86.31.07.62.14.94.2z" />
    <path d="m792.88 49.82c-10.1 4.94-20.21 9.88-30.35 14.75-1.87.89-3.09 2.13-3.97 4.01-7.99 16.92-16.05 33.81-24.09 50.72-39.39 82.85-78.73 165.72-118.24 248.51-3.11 6.51-5.41 12.89-4.5 20.15.05.42.06.87-.02 1.29-.09.54-.29 1.06-.44 1.59-.21.02-.43.04-.64.05-.9-2.51-1.75-5.05-2.7-7.55-1.46-3.84-1.23-7.41.59-11.23 20.34-42.55 40.57-85.16 60.81-127.76 28.01-58.92 56.03-117.83 83.97-176.77 1.29-2.71 3-4.47 5.72-5.75 10.08-4.75 20.06-9.7 30.07-14.6.79-.39 1.5-.93 2.57-1.61-1.14-.58-1.83-.87-2.45-1.26-2.24-1.37-4.26-1.18-6.65.03-10.33 5.22-20.74 10.27-31.18 15.27-2.09 1-3.4 2.37-4.38 4.46-12.02 25.42-24.12 50.82-36.2 76.22-26.01 54.71-52.02 109.43-78.03 164.14-9.48 19.93-18.95 39.87-28.44 59.79-.42.89-.98 1.72-1.67 2.92-2.04-3.46-2.61-6.14-.96-9.58 19.21-40.1 38.27-80.27 57.36-120.42 27.64-58.14 55.29-116.26 82.85-174.43 1.3-2.72 3.04-4.46 5.73-5.73 9.98-4.72 19.86-9.63 29.77-14.48.92-.44 1.78-.98 2.88-1.59-5.24-3.14-5.43-3.12-10.19-.79-9.9 4.86-19.79 9.77-29.76 14.48-2.43 1.15-3.9 2.76-5.02 5.14-12.76 26.99-25.58 53.96-38.4 80.93-25.82 54.32-51.65 108.64-77.47 162.97-6.92 14.56-13.83 29.12-20.77 43.67-.47.98-.66 2.27-2.11 2.77-1.7-2.95-2.41-5.49-.78-8.86 9.97-20.53 19.69-41.19 29.49-61.8 35.2-74.06 70.4-148.12 105.55-222.21 1.04-2.2 2.44-3.62 4.62-4.66 10.25-4.9 20.43-9.93 30.63-14.92.85-.42 1.66-.91 2.85-1.56-1.11-.59-1.88-.94-2.58-1.39-2.24-1.42-4.25-1.14-6.62.06-10.14 5.12-20.36 10.09-30.62 14.95-2.52 1.19-4.06 2.87-5.23 5.35-19.63 41.46-39.33 82.88-59.02 124.31-24.02 50.55-48.05 101.1-72.09 151.65-.43.91-.97 1.77-1.73 3.15-1.83-3.39-2.79-5.86-1.15-9.26 11.94-24.75 23.67-49.59 35.47-74.41 31.38-66.05 62.78-132.1 94.12-198.18.99-2.07 2.3-3.46 4.38-4.46 10.15-4.85 20.25-9.83 30.35-14.77 1.03-.5 2.02-1.05 3.65-1.9-1.95-.86-3.22-1.37-4.45-1.97-1.27-.63-2.43-.51-3.7.12-11.17 5.47-22.38 10.87-33.52 16.4-1.15.57-2.2 1.75-2.83 2.9-1.63 3.05-3.01 6.23-4.49 9.36-27.13 57.06-54.25 114.12-81.38 171.18-13.51 28.43-27.03 56.86-40.56 85.28-.43.91-1.01 1.74-1.86 3.19-1.64-3.54-2.58-6.04-.96-9.42 41.43-86.91 82.74-173.88 124.03-260.85 1-2.1 2.38-3.43 4.44-4.42 10.43-5 20.83-10.1 31.23-15.18.69-.34 1.31-.84 2.26-1.44-1.07-.53-1.77-.81-2.4-1.2-2.34-1.46-4.44-1.17-6.91.08-10.23 5.17-20.56 10.15-30.91 15.09-2.07.99-3.43 2.3-4.42 4.4-20.01 42.24-40.08 84.45-60.14 126.66s-40.13 84.42-60.2 126.62c-.43.91-.97 1.78-1.72 3.13-1.91-3.49-2.66-6.14-1.01-9.59 24.03-50.26 47.92-100.59 71.84-150.91 15.37-32.34 30.75-64.68 46.04-97.06 1.27-2.7 2.94-4.52 5.67-5.79 8.82-4.12 17.54-8.46 26.29-12.72 2.02-.99 4-2.03 6.38-3.24-3.04-1.98-5.39-3.39-8.89-1.59-10.2 5.23-20.55 10.17-30.9 15.09-2.4 1.14-3.91 2.72-5.03 5.13-6.26 13.43-12.67 26.8-19.03 40.18-31.81 66.93-63.63 133.86-95.45 200.79-.44.93-.97 1.83-1.79 3.35-1.53-3.45-2.86-5.92-1.16-9.34 5.45-10.94 10.58-22.04 15.83-33.08 32.31-68.01 64.64-136.01 96.91-204.04 1.13-2.39 2.63-3.98 5.03-5.12 9.97-4.73 19.86-9.62 29.78-14.46 1.04-.51 2.04-1.09 3.47-1.87-3.34-1.9-5.91-3.12-9.56-1.21-9.87 5.15-19.94 9.95-30.02 14.7-2.61 1.23-4.27 2.9-5.51 5.5-36.16 76.24-72.4 152.44-108.63 228.65-.49 1.04-1.06 2.04-1.82 3.51-1.85-3.26-2.91-5.74-1.28-9.14 12.06-25.05 23.92-50.2 35.86-75.31 23.83-50.12 47.67-100.23 71.45-150.38 1.04-2.19 2.43-3.62 4.62-4.66 10.15-4.84 20.24-9.82 30.35-14.76.95-.47 1.88-.98 3.25-1.7-3.01-1.26-5.09-3.45-8.43-1.77-10.73 5.39-21.55 10.61-32.37 15.8-1.88.91-3.06 2.17-3.93 4.03-5 10.68-10.08 21.32-15.14 31.97-20.72 43.58-41.44 87.15-62.16 130.73-8.83 18.56-17.64 37.13-26.48 55.69-.42.88-.56 2.09-1.97 2.44-1.67-3.06-2.3-5.73-.63-9.16 9.32-19.17 18.38-38.46 27.53-57.7 24.61-51.79 49.24-103.56 73.78-155.38 1.2-2.54 2.88-4.09 5.33-5.26 9.96-4.75 19.86-9.62 29.78-14.46.99-.48 1.94-1.05 3.13-1.71-5.33-3.11-5.5-3.1-10.25-.77-10.01 4.89-20 9.83-30.06 14.62-2.1 1-3.41 2.36-4.4 4.44-24.84 52.39-49.74 104.76-74.63 157.13-7.8 16.41-15.59 32.83-23.41 49.24-.43.88-.59 2.1-2.04 2.43-1.57-3.04-2.68-5.9-.55-9.13.95-1.43 1.53-3.09 2.28-4.66 31.25-65.75 62.52-131.5 93.74-197.27.93-1.97 2.19-3.29 4.17-4.24 10.44-5 20.82-10.11 31.22-15.2.8-.39 1.54-.89 2.66-1.55-1.64-.75-2.86-1.2-3.97-1.83-1.5-.83-2.81-.55-4.27.17-10.67 5.26-21.36 10.5-32.09 15.65-2.05.98-3.44 2.27-4.44 4.39-15.97 33.73-32.03 67.42-48.06 101.13-15.09 31.75-30.18 63.51-45.2 95.3-1 2.1-2.36 3.41-4.42 4.39-10.04 4.82-20.02 9.78-30.06 14.62-1.59.77-2.54 1.78-2.98 3.52-1.45 5.76-3.04 11.5-4.55 17.25-6.2 23.63-12.39 47.26-18.6 70.89-10.1 38.37-20.23 76.73-30.33 115.09-8.76 33.25-17.5 66.5-26.25 99.74-6.63 25.2-13.26 50.4-19.88 75.6-.22.85-.26 1.74-.44 3 1.23-.52 1.93-.78 2.6-1.1 7.39-3.6 14.75-7.27 22.19-10.77 2.07-.97 3.08-2.33 3.62-4.53 2.47-9.86 5.1-19.68 7.67-29.51 7.08-27.09 14.18-54.18 21.19-81.29.6-2.33 1.77-3.64 3.92-4.66 10.65-5.07 21.24-10.25 31.8-15.5 2.39-1.18 4.64-2.36 7.29-.75.37-3.27.41-3.31 3.61-3.61 1.17 3.96 2.44 8.08 8.21 8.04-1.17-3.65-2.31-7.18-3.52-10.98 1.16-.6 2.13-1.1 3.28-1.69.51 1.16.9 1.92 1.18 2.71 1.11 3.17 2.43 6.29 3.22 9.53.95 3.87 3.78 4.72 7.44 5.54-2.36-6.92-4.58-13.42-6.88-20.17 1.29-.62 2.28-1.1 3.52-1.7.6 1.58 1.08 2.77 1.5 3.98 2.05 5.93 4.08 11.87 6.13 17.8 1.06 3.09 3.28 4.53 6.94 4.4-.39-1.18-.75-2.3-1.13-3.41-2.56-7.47-5.14-14.93-7.69-22.41-1.03-3.02-.83-3.31 2.73-4 .4 1.03.85 2.1 1.23 3.2 3.03 8.8 6.23 17.54 9 26.42 1.18 3.8 3.84 4.66 7.37 5.5-.44-1.39-.73-2.41-1.08-3.41-3.66-10.64-7.33-21.27-10.97-31.92-.99-2.89-.65-3.34 2.87-3.8.39 1.05.81 2.15 1.19 3.26 4.02 11.66 8.2 23.27 11.95 35.01 1.21 3.76 3.67 4.82 7.51 5.64-5.44-15.84-10.71-31.22-16.06-46.83 1.36-.6 2.36-1.04 3.61-1.59.62 1.72 1.11 3.03 1.57 4.34 4.99 14.53 9.98 29.06 14.98 43.59 1.22 3.53 2.8 4.67 7.07 4.92-.33-1.08-.62-2.1-.96-3.09-5.66-16.47-11.33-32.94-16.99-49.42-1.03-3-.84-3.28 2.69-4.07.45 1.14.97 2.31 1.38 3.51 6.06 17.59 12.23 35.15 18.07 52.81 1.26 3.81 3.91 4.56 7.44 5.55-1.05-3.1-1.93-5.75-2.84-8.39-6.12-17.8-12.25-35.6-18.36-53.41-1.06-3.07-.88-3.32 2.65-4.11.49 1.23 1.03 2.49 1.48 3.79 7.12 20.66 14.23 41.33 21.34 61.99 1.07 3.1 3.23 4.52 7 4.42-4.22-12.24-8.44-24.38-12.58-36.55-4.13-12.15-8.49-24.21-12.48-36.62 1.37-.55 2.32-.93 3.45-1.38.49 1.17.9 2.04 1.21 2.93 1.26 3.58 2.48 7.16 3.72 10.74 7.03 20.46 14.06 40.93 21.1 61.39 1.05 3.02 3.16 4.33 6.74 4.13-.27-.96-.5-1.89-.8-2.79-1.67-4.92-3.36-9.83-5.05-14.74-7.04-20.46-14.09-40.92-21.12-61.38-1.06-3.09-.89-3.34 2.65-3.98 4.95 14.35 9.91 28.76 14.89 43.15 5.01 14.45 9.79 28.98 15.11 43.63 9.72-4.82 19.1-9.15 28.5-14.02-11.92-33.83-23.7-67.26-35.55-100.87 1.07-.32 1.84-.54 2.76-.82v-3.3c0-5.52.06-11.04-.02-16.56-.03-2.22.36-4.25 1.36-6.24 2.04-4.06 3.96-8.18 5.91-12.29 46.53-97.9 93.06-195.8 139.55-293.72 1.09-2.28 2.57-3.78 4.86-4.87 10.07-4.78 20.06-9.7 30.08-14.59.99-.49 1.94-1.08 3.11-1.73-5.36-3.15-5.36-3.13-10.17-.78zm-290.54 318.81c2.14 2.79 2.52 5.39 3.39 8.26-1.85.9-3.61 1.76-5.37 2.62-.2-.16-.39-.31-.59-.47.8-3.24 1.6-6.48 2.57-10.41zm-1.77 16.78c3.27-1.39 6.41-3.09 9.6-4.68.66-.32 1.28-.73 2.09-1.21-.35-1.11-.64-2.12-.98-3.12-1.75-5.11-3.38-10.26-5.3-15.3-1.11-2.89-.67-5.42.56-7.96.27 0 .38-.02.48 0s.21.06.28.12c.15.15.33.31.4.5 3.01 8.66 6 17.33 8.99 26.01.17.5.2 1.04.39 2.03-6.58 3.2-13.19 6.42-20.19 9.83-.13-3.57 1.18-5.17 3.68-6.22zm-3.87 12.28c7.82-3.7 15.57-7.55 23.34-11.35 1.15-.56 2.28-1.17 3.69-1.9-.51-1.56-.95-2.97-1.43-4.38-4-11.66-7.96-23.33-12.05-34.96-1.04-2.94-.83-5.62.68-8.7.53.68 1.03 1.09 1.21 1.6 5.43 15.85 10.83 31.72 16.23 47.58.03.1 0 .21 0 .86-5.29 3.18-11.25 5.65-17 8.52-5.66 2.83-11.39 5.53-17.44 8.45-.12-2.85.4-4.6 2.77-5.72zm-2.85 11.79c12.73-6.23 25.47-12.43 38.2-18.65.95-.47 1.88-.99 3.07-1.62-.62-1.89-1.18-3.62-1.77-5.33-6.3-18.43-12.56-36.86-18.95-55.25-1.05-3.02-.57-5.66.57-8.36.27.03.38.02.47.06.1.03.24.08.26.16 7.95 22.99 15.9 45.98 23.83 68.97.17.5.2 1.04.37 1.97-16.19 7.89-32.38 15.77-48.66 23.7-.5-3.47-.13-4.31 2.61-5.65zm-2.83 11.78c13.11-6.43 26.23-12.84 39.35-19.25 4.37-2.13 8.76-4.24 13.13-6.39.95-.46 1.86-1.01 2.99-1.63-.47-1.48-.87-2.81-1.32-4.11-8.77-25.59-17.51-51.18-26.34-76.74-1.11-3.23-1.2-6.21.5-9.34 1.41 1.94 30.95 87.51 31.8 91.92-1.83 1.63-59.34 29.88-63.02 30.96-.49-3.04-.01-3.99 2.91-5.42zm-3.18 11.88c18.56-9.07 37.12-18.12 55.68-27.17 4.08-2 8.17-3.98 12.24-5.98.66-.33 1.26-.77 2.05-1.26-.33-1.11-.59-2.14-.93-3.14-11.31-33.04-22.6-66.09-33.99-99.11-1.07-3.09-.93-5.84.45-8.64.28-.06.56-.12.84-.19 12.86 37.59 25.73 75.18 38.56 112.65-2.08 1.94-74.71 37.49-77.73 38.14-.25-3.27.09-3.96 2.83-5.3zm-2.78 11.68c26.75-12.98 53.46-26.03 80.18-39.07 1.34-.66 2.64-1.39 4.1-2.15-1.46-4.31-2.85-8.39-4.24-12.47-12.68-37.03-25.34-74.07-38.08-111.08-1.06-3.07-1.03-5.81.71-8.63 1.5 1.99 44.78 127.46 46.2 133.81-1.8 1.79-88.64 44.35-92.19 45.14-.3-2.73.84-4.35 3.32-5.55zm-6.06 17.33c-.44-3.1.02-3.99 2.96-5.43 13.41-6.54 26.83-13.05 40.24-19.59 18.66-9.1 37.31-18.22 55.96-27.33.77-.37 1.48-.84 2.4-1.36-.27-1.01-.47-1.94-.77-2.83-15.55-45.42-31.1-90.84-46.65-136.26-.74-2.15-1.48-4.3-2.19-6.45-.88-2.71-.83-2.78 2.68-3.93 17.29 50.47 34.5 100.75 51.68 150.92-2.06 1.92-101.49 50.71-106.31 52.26z" />
    <path d="m903.16 289.34c-15.83 7.7-31.64 15.39-47.51 23.11-.99-3.49-.91-3.71 1.59-5.04.57-.3 1.16-.58 1.74-.86 12.25-5.98 24.5-11.95 36.75-17.93.8-.39 1.54-.91 2.45-1.45-5.22-3.11-5.22-3.11-10.04-.76-10.02 4.87-20.04 9.75-30.07 14.61-.82.39-1.69.67-2.6 1.03-.71-3.64-.66-3.83 2.09-5.17 8.27-4.04 16.54-8.05 24.81-12.08 1.42-.69 2.83-1.42 4.67-2.34-1.25-.69-2-1.06-2.71-1.5-2.23-1.39-4.25-1.16-6.6.07-6.23 3.26-12.61 6.24-18.93 9.31-1.04.5-2.12.91-3.22 1.38-.92-3.52-.84-3.79 1.86-5.13 4.95-2.45 9.92-4.84 14.87-7.28.93-.46 1.84-.98 3.18-1.71-1.27-.69-2.11-1.12-2.93-1.59-2.04-1.17-3.93-1.1-6.04.13-2.79 1.64-5.79 2.93-8.72 4.32-.73.35-1.54.52-2.35.78-.71-3.6-.69-3.65 2.1-5.08 2.08-1.06 4.18-2.09 6.67-3.34-3.05-1.79-5.57-3.33-9.26-1.8-.02-16.95-.01-33.47-.01-49.99v-149.41c-1.28.43-1.92.57-2.48.84-11.29 5.5-22.55 11.03-33.85 16.48-1.62.78-2.41 2.02-3.12 3.53-6.43 13.58-12.9 27.15-19.36 40.73-23.5 49.43-46.99 98.86-70.48 148.29-18.62 39.17-37.25 78.34-55.82 117.54-.72 1.51-1.21 3.28-1.24 4.94-.14 6.6-.07 13.2-.04 19.8.01.8.23 1.6.38 2.68 1.29-.53 2.29-.88 3.24-1.34 25.57-12.47 51.15-24.94 76.7-37.46 2.18-1.07 4.27-2.02 6.65-.91 1.19-3.26 2.06-3.9 5.23-3.85.1 2.12.2 4.26.31 6.46 1.63.71 3.1 1.37 4.59 1.97.38.15.83.09 1.46.15.11-.95.27-1.77.28-2.59.04-2.27.01-4.54.02-6.82.02-3.74.44-4.21 4.71-4.99v16.89c2.2.94 4.14 1.77 6.5 2.77.1-1.5.23-2.54.23-3.58.02-5.63 0-11.25.02-16.88.01-3.53.43-3.96 4.57-4.68.09 1.05.23 2.08.24 3.11.03 2.92.01 5.84.01 8.76 0 4.44-.04 8.88.05 13.31.02.85.37 2.1.98 2.46 1.52.91 3.28 1.42 5.47 2.3v-4.05c0-8.88-.01-17.75 0-26.62.01-3.71.63-4.34 4.84-4.76v29.82c0 1.94-.08 3.9.05 5.84.04.76.34 1.87.89 2.18 1.63.92 3.29 1.98 5.68 2.04v-3.71c0-12.44-.01-24.89.01-37.33.01-3.4.78-4.11 4.8-4.31v47.97c2.19.84 4.06 1.57 6.52 2.52v-4.24c0-15.69-.01-31.38 0-47.07 0-3.72.53-4.27 4.8-4.89v58.39c2.26.93 4.19 1.73 6.66 2.75v-4.41c0-19.26-.01-38.52 0-57.78 0-3.4 1-4.33 4.68-4.2v22.99c0 3.79.01 7.57.01 11.36s-.01 7.57-.01 11.36c0 3.9-.02 7.79.01 11.69.03 3.71-.14 7.44.13 11.54 1.49-.66 2.48-1.06 3.43-1.52 5.93-2.89 11.85-5.82 17.78-8.69 5.35-2.59 4.44-1.65 4.45-7.24.04-20.56.06-41.12-.03-61.68-.02-2.5.69-3.92 3.01-5.02 11.24-5.34 22.39-10.86 33.57-16.32 4.07-1.99 8.13-3.99 12.06-5.91.61-5.76.38-20.48-.38-22.89zm-160.96 1.66c2.1-.85 2.66-2.22 2.45-4.28-.44-4.45 1.97-7.84 3.9-11.4.22.04.44.08.65.12.09.7.25 1.39.25 2.08.03 3.87-.05 7.75.04 11.62.05 1.84-.49 3.03-2.26 3.8-2.74 1.19-5.4 2.57-8.55 4.09.4-2.9 1.13-5.08 3.52-6.03zm-6.12 13.25c5.76-2.74 11.44-5.63 17.22-8.32 2.02-.94 2.83-2.1 2.8-4.43-.15-9.51-.08-19.02-.06-28.53.01-4.24 1.33-7.88 4.62-12.19.11 1.48.24 2.3.24 3.11.01 13.08-.06 26.16.05 39.24.03 2.51-.71 3.92-3.04 5-7.84 3.65-15.57 7.51-23.35 11.28-.66.32-1.36.54-2.43.96.54-2.87 1.44-4.93 3.95-6.12zm-6.26 13.39c7.71-3.67 15.37-7.45 23.04-11.18 3.99-1.94 7.92-3.99 11.97-5.78 1.99-.88 2.64-2.04 2.63-4.21-.08-19.24.03-38.48-.1-57.73-.03-4.4 2.15-7.73 3.9-11.34.33.06.65.11.98.17v3.14c0 22.38-.04 44.76.06 67.13.01 2.64-.79 4.03-3.22 5.19-13.85 6.61-27.61 13.41-41.4 20.14-.47.23-.98.38-1.86.72.37-3.01 1.41-5.02 4-6.25zm-5.88 13.26c16.76-8.07 33.46-16.28 50.18-24.44.68-.33 1.34-.74 2.05-.98 2.21-.72 2.76-2.21 2.75-4.46-.08-19.69-.05-39.38-.05-59.07v-26.94c.01-4.25 1.29-7.84 4.23-11.72.97 1.01.59 2.23.59 3.31.02 19.47.01 38.95.01 58.42 0 12.55-.06 25.1.05 37.65.03 2.47-.62 3.91-2.97 5.04-19.49 9.39-38.92 18.91-58.37 28.38-.84.41-1.72.74-3.15 1.34.71-3.42 2.07-5.27 4.68-6.53zm-7.08 13.84c7.42-3.54 14.79-7.18 22.18-10.78 16.33-7.98 32.66-15.95 48.99-23.94.67-.33 1.3-.75 2.17-1.26v-4.13c0-37.88.05-75.75-.07-113.62-.01-4.53 2.27-7.88 3.9-11.62.34.09.67.17 1.01.25v127.19c0 .54-.06 1.09.01 1.62.22 1.9-.65 2.96-2.34 3.76-6.16 2.92-12.27 5.95-18.39 8.94-19.06 9.3-38.11 18.6-57.17 27.89-1.23.6-2.49 1.16-4.19 1.95.45-3.06 1.39-5.05 3.9-6.25zm-5.27 12.88c28.62-13.86 57.19-27.81 85.76-41.78 5.15-2.52 4.3-1.29 4.3-6.99.02-47.28.05-94.56-.04-141.84-.01-4.4 2-7.78 4.14-12.02.39 1.2.65 1.72.71 2.26.08.75.02 1.51.02 2.27v151.26c0 .54-.07 1.09.02 1.62.4 2.54-.76 3.87-3.05 4.97-20.55 9.93-41.04 19.98-61.55 29.98-10.89 5.31-21.79 10.61-32.68 15.9-.75.36-1.54.63-2.81 1.14.68-3.6 2.41-5.42 5.18-6.77zm-7.03 13.81c10.83-5.17 21.6-10.48 32.39-15.74 24.5-11.95 48.98-23.93 73.52-35.78 2.37-1.15 2.55-2.75 2.55-4.92-.04-57.02.01-114.03-.11-171.05-.01-4.75 1.92-8.49 3.98-12.36.31.04.61.08.91.13v184.85c0 .32-.04.65.01.97.33 2.25-.6 3.55-2.7 4.52-5.21 2.38-10.31 5-15.47 7.51-31.59 15.41-63.19 30.81-94.78 46.21-1.43.7-2.88 1.36-4.81 2.28.51-3.42 1.83-5.34 4.51-6.62zm120.57-44.06c-37.81 18.45-75.63 36.86-113.45 55.29-4.76 2.32-9.52 4.67-14.28 6.99-1.05.51-2.14.96-3.88 1.73.79-3.24 1.9-5.15 4.41-6.37 28.41-13.77 56.8-27.62 85.18-41.46 12.74-6.2 25.44-12.49 38.24-18.55 2.48-1.18 3.15-2.6 3.15-5.19-.07-66.75-.03-133.5-.12-200.25-.01-3.66 1.13-6.75 2.78-9.81.15-.28.39-.52.64-.71.15-.12.4-.13.67-.2 1.09.9.64 2.18.64 3.29.04 9.08.03 18.17.03 27.26 0 60.47 0 120.95-.01 181.42 0 5.36.52 4.36-4 6.56z" />
    <path d="m408.6 618.72c-2.2-.94-4.14-1.77-6.29-2.68.67-2.7 1.26-5.2 1.91-7.69 11-41.83 22-83.67 33.01-125.5 13.84-52.6 27.69-105.2 41.54-157.81 7.82-29.7 15.66-59.39 23.38-89.12.64-2.45 1.81-3.87 4.05-4.93 9.47-4.51 18.92-9.07 28.27-13.84 2.77-1.42 5.21-1.81 7.87-.13.54.34 1.13.58 2.25 1.14-1.4.73-2.39 1.27-3.42 1.77-9.52 4.66-19.02 9.36-28.59 13.92-2.04.97-3.12 2.29-3.69 4.48-12.11 46.24-24.28 92.46-36.44 138.68-10.81 41.1-21.63 82.2-32.44 123.3-10.13 38.48-20.25 76.97-30.39 115.45-.24.92-.61 1.79-1.02 2.96z" />
    <path d="m125.14 470.52c3.45-4.93 6.59-9.44 9.75-13.95 26.31-37.43 52.63-74.86 78.92-112.3 1.22-1.73 2.61-3.05 4.54-3.98 11.98-5.78 23.93-11.62 35.86-17.51 1.52-.75 2.83-.82 4.29-.04 1.1.58 2.25 1.08 3.92 1.86-1.45.78-2.36 1.31-3.29 1.77-11.37 5.56-22.73 11.13-34.12 16.63-1.72.83-3.03 1.93-4.13 3.49-29.21 41.61-58.45 83.2-87.67 124.79-.48.69-.87 1.44-1.44 2.4 1.06.79 1.96 1.52 2.92 2.17 3.04 2.07 6.07 4.16 9.16 6.15 1.44.92 2.14 2.05 1.96 3.76-.07.64-.01 1.3-.01 1.95 0 38.94.01 77.89-.01 116.83 0 4.52.76 3.89-3.72 6.07-29.36 14.32-58.7 28.66-88.1 42.9-2.29 1.11-3.2 2.35-3.11 4.93.21 5.62.07 11.25.07 16.87v3.77c-2.47-1.01-4.41-1.8-6.59-2.68 0-2.36 0-4.61 0-6.86 0-4.76.1-9.52-.05-14.28-.07-2.15.64-3.31 2.6-4.24 11.42-5.45 22.78-11.03 34.15-16.57 18.28-8.91 36.53-17.88 54.85-26.69 2.51-1.21 3.37-2.69 3.36-5.45-.08-39.48-.09-78.97.01-118.45.01-2.87-.92-4.58-3.3-6.03-3.58-2.2-6.98-4.7-10.82-7.31z" />
    <path d="m113.92 465.66c.72-1.13 1.26-2.04 1.87-2.9 28.86-41.07 57.73-82.12 86.56-123.21 1.35-1.93 2.95-3.29 5.08-4.31 11.11-5.34 22.17-10.8 33.24-16.22 4.77-2.34 4.89-2.33 10.02.84-1.02.58-1.88 1.12-2.79 1.57-11.27 5.52-22.53 11.03-33.82 16.51-1.89.91-3.44 2.05-4.68 3.82-29.01 41.36-58.06 82.68-87.1 124.01-.62.88-1.2 1.78-1.97 2.91.82.68 1.49 1.34 2.26 1.87 2.85 1.96 5.66 4 8.64 5.76 2.28 1.36 3.59 3.01 3.1 5.75-.04.21 0 .43 0 .65v117.16c0 .54-.06 1.09.01 1.62.27 1.94-.7 2.9-2.38 3.69-6.75 3.19-13.43 6.5-20.14 9.77-23.04 11.23-46.07 22.49-69.16 33.64-2.41 1.16-3.31 2.58-3.22 5.23.19 5.51.06 11.03.05 16.55v3.7c-1.91-.68-3.29-1.17-4.67-1.66-1.27-.45-1.84-1.28-1.83-2.69.05-6.82.06-13.63-.01-20.45-.02-1.8 1.11-2.4 2.41-3.03 7.98-3.87 15.96-7.75 23.93-11.63 21.88-10.66 43.74-21.34 65.65-31.94 2.16-1.04 2.93-2.36 2.93-4.75-.06-39.81-.06-79.62-.01-119.43 0-2.31-.69-3.83-2.69-5.03-2.87-1.73-5.59-3.7-8.36-5.6-.93-.63-1.83-1.37-2.92-2.2z" />
    <path d="m154.42 483.33c3.92 2.67 7.41 5.23 11.08 7.47 2.3 1.4 3.14 3.06 3.13 5.77-.08 39.38-.09 78.75 0 118.13.01 2.78-.88 4.19-3.38 5.4-29.4 14.23-58.73 28.6-88.13 42.84-2.48 1.2-3.53 2.6-3.42 5.4.21 5.51.07 11.03.05 16.55 0 1.04-.11 2.09-.2 3.73-2.08-.86-3.82-1.39-5.31-2.31-.61-.38-.94-1.64-.95-2.5-.08-6.49.01-12.98-.08-19.47-.03-1.94.82-2.89 2.47-3.68 8.78-4.21 17.51-8.51 26.26-12.78 21-10.24 41.98-20.52 63.02-30.67 2.3-1.11 3.12-2.42 3.12-4.94-.07-39.7-.07-79.4 0-119.11 0-2.59-.85-4.19-3.02-5.53-3.67-2.26-7.18-4.79-11.06-7.4.76-1.17 1.35-2.14 2-3.08 23.63-33.63 47.28-67.25 70.91-100.88 5.35-7.61 10.72-15.21 16.02-22.85 1.02-1.48 2.24-2.55 3.85-3.33 12.07-5.85 24.13-11.72 36.15-17.65 1.49-.74 2.8-.91 4.27-.1 1.12.62 2.32 1.09 3.99 1.87-1.36.73-2.26 1.25-3.19 1.71-11.37 5.56-22.73 11.14-34.12 16.64-1.82.88-3.19 2.08-4.34 3.73-23.85 34.01-47.73 67.99-71.62 101.97-5.16 7.35-10.34 14.68-15.51 22.02-.6.86-1.15 1.77-1.99 3.05z" />
    <path d="m108.81 464.13c3.42 2.32 6.56 4.4 9.66 6.54 5.14 3.55 4.44 2.2 4.44 8.28.02 38.73-.03 77.46.09 116.19.01 3.04-.9 4.57-3.64 5.89-29.32 14.16-58.56 28.48-87.87 42.66-2.48 1.2-3.56 2.61-3.45 5.41.2 5.4.06 10.82.06 16.23v4.12c-2.54-1.05-4.48-1.84-6.55-2.7 0-1.17 0-2.13 0-3.09 0-5.95.09-11.9-.05-17.85-.05-2.25.64-3.49 2.73-4.48 10.26-4.87 20.44-9.91 30.64-14.89 19.44-9.49 38.86-19.02 58.35-28.42 2.39-1.15 3.24-2.53 3.24-5.19-.08-39.6-.08-79.19-.01-118.79 0-2.55-.68-4.25-2.91-5.57-2.88-1.71-5.59-3.7-8.36-5.59-.87-.6-1.69-1.28-2.67-2.02.65-1.01 1.13-1.83 1.68-2.61 29.04-41.34 58.09-82.66 87.1-124.03 1.25-1.79 2.86-2.86 4.73-3.76 11.48-5.57 22.99-11.1 34.38-16.84 2.32-1.17 4.23-1.25 6.37-.04.73.41 1.51.75 2.7 1.33-1.13.66-1.89 1.18-2.71 1.58-11.46 5.62-22.91 11.26-34.4 16.82-1.82.88-3.21 2.04-4.37 3.69-29.02 41.35-58.08 82.67-87.12 124-.61.87-1.17 1.78-2.06 3.13z" />
    <path d="m62.08 683.53c-.92-.23-1.44-.32-1.94-.49-4.33-1.55-4.33-1.55-4.34-6.18 0-5.63.08-11.25-.04-16.88-.05-2.13.66-3.27 2.63-4.22 26.77-12.96 53.5-26.02 80.24-39.05 2.92-1.42 5.78-2.96 8.77-4.23 2.4-1.01 3.37-2.44 3.32-5.17-.18-9.19-.07-18.39-.07-27.59 0-30.08-.06-60.15.08-90.23.02-3.47-.97-5.67-3.99-7.31-2.55-1.39-4.88-3.2-7.29-4.85-.87-.6-1.69-1.28-2.71-2.05.68-1.08 1.2-1.99 1.81-2.85 28.98-41.25 57.98-82.48 86.94-123.74 1.09-1.56 2.37-2.69 4.1-3.52 11.3-5.45 22.65-10.81 33.79-16.58 3.7-1.91 6.66-1.65 10.13.87-.98.57-1.81 1.13-2.71 1.57-11.27 5.51-22.54 11.02-33.84 16.47-2 .97-3.6 2.21-4.9 4.06-29.01 41.36-58.06 82.69-87.1 124.02-.55.79-1.07 1.61-1.81 2.73.86.7 1.62 1.4 2.46 1.98 3.21 2.21 6.42 4.41 9.69 6.53 1.31.85 1.9 1.89 1.85 3.48-.09 2.81-.02 5.62-.02 8.44v110.68c0 .43-.05.87.01 1.3.32 2.16-.66 3.29-2.61 4.21-7.93 3.73-15.77 7.64-23.64 11.48-21.78 10.61-43.55 21.26-65.37 31.79-2.38 1.15-3.35 2.52-3.26 5.2.2 5.84.07 11.68.05 17.52-.02.76-.14 1.5-.23 2.61z" />
    <path d="m159.48 484.93c.7-1.09 1.24-2 1.84-2.85 28.99-41.25 57.98-82.5 86.95-123.76 1.09-1.55 2.36-2.69 4.09-3.53 11.31-5.44 22.66-10.8 33.81-16.55 3.69-1.9 6.67-1.73 10.22.91-1.14.62-2.1 1.18-3.09 1.67-11.28 5.5-22.55 11.01-33.85 16.46-1.91.92-3.37 2.17-4.6 3.92-28.89 41.18-57.83 82.34-86.76 123.5-.68.96-1.32 1.95-2.19 3.24.99.79 1.84 1.56 2.78 2.2 2.77 1.89 5.49 3.87 8.38 5.56 2.24 1.31 2.94 3 2.93 5.56-.09 24.67-.05 49.34-.05 74.01 0 14.82-.07 29.65.06 44.47.02 2.69-.91 3.98-3.29 5.13-29.12 14.09-58.17 28.3-87.25 42.47-.68.33-1.34.72-2.05.98-1.79.65-2.37 1.91-2.34 3.78.08 5.73.03 11.47.03 17.2v3.63c-2.63.05-4.38-1.22-6.32-2.26-.06-.87-.16-1.73-.16-2.58-.01-6.17.08-12.34-.05-18.5-.05-2.16.71-3.28 2.66-4.21 11.9-5.7 23.75-11.53 35.61-17.31 17.8-8.67 35.57-17.39 53.41-25.98 2.36-1.14 3.28-2.48 3.27-5.17-.09-39.6-.09-79.2 0-118.8.01-2.74-.9-4.41-3.17-5.76-2.7-1.59-5.24-3.45-7.84-5.21-.97-.67-1.89-1.39-3.03-2.22z" />
    <path d="m16.49 664.54c-2.28-.92-4.13-1.67-6.05-2.44-.07-1.15-.18-2.11-.19-3.06-.02-6.06.09-12.12-.06-18.17-.06-2.31.83-3.45 2.86-4.42 23.95-11.61 47.86-23.29 71.77-34.95 5.74-2.8 11.42-5.72 17.22-8.36 2.33-1.06 3.11-2.45 3.1-4.98-.08-24.23-.05-48.47-.05-72.7 0-15.36-.06-30.73.06-46.09.02-2.7-.8-4.44-3.13-5.8-2.7-1.58-5.23-3.45-7.82-5.22-.97-.66-1.9-1.39-3.09-2.27.67-1.05 1.19-1.96 1.79-2.82 19.76-28.16 39.53-56.31 59.3-84.46 9.14-13.01 18.34-25.98 27.44-39.02 1.29-1.84 2.83-3.13 4.85-4.1 11.11-5.35 22.18-10.79 33.25-16.22 4.89-2.4 5.19-2.39 10.24.81-1.26.67-2.37 1.29-3.51 1.85-11.08 5.41-22.15 10.84-33.25 16.2-2.02.97-3.54 2.3-4.83 4.13-28.83 41.08-57.7 82.14-86.56 123.2-.73 1.05-1.43 2.12-2.32 3.44 1.09.84 1.97 1.59 2.92 2.24 3.12 2.14 6.25 4.28 9.41 6.36 1.2.79 1.83 1.74 1.72 3.21-.08.97-.01 1.95-.01 2.92v116.19c0 .65-.06 1.31.01 1.95.21 1.79-.67 2.71-2.23 3.46-7.9 3.79-15.74 7.7-23.62 11.54-21.88 10.66-43.74 21.35-65.66 31.92-2.49 1.2-3.5 2.64-3.39 5.43.21 5.51.07 11.03.05 16.55-.01 1.07-.12 2.11-.22 3.68z" />
    <path d="m837.38 65.13c-3.7 1.81-6.98 3.43-10.27 5.03-7.68 3.75-15.33 7.55-23.06 11.19-2.28 1.08-3.77 2.56-4.85 4.86-18.56 39.19-37.19 78.35-55.81 117.52-29.71 62.51-59.41 125.02-89.16 187.51-1.19 2.51-1.86 4.98-1.79 7.77.13 5.3.04 10.6.04 15.9v3.6c-2.4.3-4.04-.82-5.68-1.74-.48-.27-.76-1.27-.77-1.94-.05-7.25-.14-14.5.04-21.74.04-1.63.92-3.3 1.65-4.84 9.26-19.55 18.56-39.07 27.85-58.61 27.76-58.41 55.52-116.82 83.28-175.23 11.23-23.64 22.49-47.26 33.67-70.92 1.02-2.17 2.37-3.65 4.57-4.69 10.06-4.78 20.15-9.51 30.01-14.7 3.75-1.98 6.67-1.56 10.28 1.03z" />
    <path d="m629.69 409.1c-.84 0-1.07.05-1.26-.01-5.28-1.68-5.28-1.68-5.28-7.14 0-5.63-.1-11.25.05-16.88.05-1.77.44-3.67 1.2-5.27 37.09-78.18 74.23-156.33 111.38-234.48 11.38-23.93 22.8-47.85 34.13-71.8.94-1.99 2.22-3.26 4.18-4.21 10.34-4.96 20.67-9.92 30.9-15.11 2.59-1.31 4.8-1.61 7.26-.1.61.38 1.28.67 2.37 1.22-1.28.7-2.17 1.24-3.09 1.69-10.2 4.99-20.39 10.02-30.64 14.91-2.1 1-3.41 2.39-4.39 4.46-22.95 48.37-45.94 96.72-68.92 145.08-25.44 53.53-50.87 107.08-76.34 160.6-1.05 2.21-1.62 4.39-1.58 6.84.1 5.62.03 11.25.03 16.88z" />
    <path d="m825.75 60.33c-1.26.67-2.36 1.29-3.51 1.85-9.92 4.83-19.82 9.7-29.78 14.44-2.17 1.04-3.57 2.48-4.61 4.67-48.29 101.71-96.63 203.4-145.01 305.07-1.24 2.61-1.89 5.2-1.82 8.1.13 5.3.04 10.6.03 15.9 0 1.06-.09 2.13-.15 3.34-2.25.23-3.88-.9-5.5-1.82-.49-.28-.81-1.25-.82-1.91-.06-7.25-.1-14.5.03-21.74.02-1.32.72-2.69 1.31-3.94 14.56-30.69 29.14-61.36 43.72-92.03l79.11-166.47c7.52-15.83 15.08-31.63 22.55-47.48.94-1.99 2.23-3.26 4.2-4.2 10.24-4.9 20.43-9.92 30.64-14.91 4.26-2.08 5.06-2.01 9.61 1.13z" />
    <path d="m663.85 424.08c-2.61-1.11-4.46-1.89-6.55-2.78 0-2.25 0-4.4 0-6.54 0-5.09-.09-10.17.05-15.25.05-1.67.39-3.46 1.1-4.96 16.71-35.3 33.48-70.56 50.24-105.83 19.32-40.64 38.64-81.28 57.96-121.93 12.49-26.28 24.99-52.56 37.44-78.86.93-1.97 2.22-3.25 4.2-4.2 10.34-4.95 20.71-9.86 30.89-15.14 3.63-1.88 6.25-.83 9.55 1.31-1.68.85-2.99 1.53-4.32 2.18-9.72 4.74-19.43 9.52-29.19 14.19-2.05.98-3.45 2.28-4.45 4.39-36.55 77.01-73.15 153.99-109.75 230.97-11.8 24.81-23.58 49.64-35.42 74.43-1.2 2.5-1.85 4.99-1.78 7.78.13 5.3.04 10.6.04 15.9-.01 1.17-.01 2.34-.01 4.34z" />
    <path d="m148.39 276.66c-7.4 3.62-14.28 6.99-21.17 10.35-5.44 2.65-10.93 5.22-16.31 7.99-1.47.76-2.91 1.93-3.86 3.27-29.21 41.45-58.36 82.94-87.51 124.43-.55.79-1.04 1.62-1.74 2.71 2.9 2.96 6.76 4.59 9.67 7.44-5.79-2.76-10.75-6.79-16.25-10.27.65-1.05 1.06-1.79 1.55-2.48 29.14-41.5 58.3-82.99 87.43-124.49 1.03-1.47 2.27-2.5 3.89-3.28 11.39-5.5 22.85-10.89 34.05-16.74 3.8-1.99 6.64-1.24 10.25 1.07z" />
    <path d="m171.15 286.13c-1.27.68-2.16 1.21-3.09 1.66-11.36 5.56-22.72 11.13-34.11 16.64-1.7.82-3.08 1.84-4.19 3.42-29.31 41.78-58.66 83.53-87.99 125.29-.37.52-.68 1.09-1.25 1.99 3.04 2.73 6.77 4.53 10.06 7.24-2.72-.65-13.64-7.74-16.26-10.52.32-.59.62-1.28 1.04-1.87 29.21-41.59 58.43-83.17 87.63-124.76 1.03-1.46 2.29-2.49 3.9-3.27 11.68-5.65 23.37-11.28 34.96-17.11 2.39-1.2 4.39-1.36 6.61-.04.72.42 1.51.75 2.69 1.33z" />
    <path d="m74.77 449.68c3.28 2.3 6.42 4.51 9.96 6.99-2.92-.7-13.83-7.87-16.25-10.51.56-.86 1.11-1.77 1.72-2.64 28.78-40.98 57.57-81.95 86.31-122.95 1.48-2.11 3.23-3.62 5.56-4.73 11.22-5.36 22.47-10.68 33.52-16.39 3.63-1.87 6.27-.97 9.51 1.12-1.06.63-1.84 1.16-2.67 1.57-10.88 5.32-21.74 10.68-32.68 15.88-2.93 1.39-5.12 3.27-7 5.95-20.88 29.87-41.87 59.67-62.83 89.48-7.84 11.15-15.66 22.31-23.48 33.47-.55.79-.99 1.64-1.67 2.76z" />
    <path d="m182.34 291.01c-1.14.65-1.93 1.16-2.77 1.57-11.18 5.45-22.35 10.94-33.57 16.3-2.34 1.12-4.06 2.65-5.54 4.76-28.88 41.19-57.81 82.34-86.72 123.5-.61.86-1.15 1.77-1.88 2.9 3.07 2.14 5.93 4.15 8.8 6.15-2.41-.37-12.18-6.76-15-9.51.46-.76.89-1.59 1.43-2.36 25.37-36.11 50.76-72.22 76.14-108.33 3.67-5.22 7.37-10.42 10.97-15.69 1.14-1.67 2.55-2.83 4.37-3.71 11.3-5.45 22.67-10.79 33.8-16.55 3.63-1.88 6.47-1.48 9.97.97z" />
    <path d="m159.7 281.49c-4.1 2.01-7.68 3.78-11.26 5.53-8.65 4.22-17.29 8.47-25.98 12.63-1.82.88-3.19 2.09-4.34 3.74-29.09 41.44-58.2 82.87-87.31 124.3-.55.79-1.04 1.62-1.77 2.77 3.45 2.38 6.8 4.69 10.3 7.11-2.64-.48-13.53-7.48-16.51-10.58.49-.76.97-1.58 1.51-2.35 29.04-41.34 58.09-82.68 87.11-124.04 1.17-1.67 2.61-2.78 4.41-3.65 11.3-5.46 22.67-10.8 33.8-16.58 3.71-1.93 6.46-1.21 10.04 1.12z" />
    <path d="m194.02 295.78c-1.45.76-2.44 1.32-3.47 1.81-11.27 5.5-22.54 11.03-33.84 16.47-1.82.88-3.2 2.05-4.36 3.7-29.12 41.53-58.28 83.03-87.43 124.55-.49.7-.92 1.44-1.61 2.51 3.35 2.36 6.62 4.67 9.9 6.99-.13.19-.27.38-.4.57-5.42-3.21-10.45-7.02-15.92-10.49.6-1.06.95-1.83 1.43-2.51 29.09-41.42 58.2-82.83 87.27-124.27 1.16-1.66 2.56-2.83 4.37-3.7 11.69-5.64 23.38-11.27 34.99-17.08 2.19-1.1 3.99-1.24 6.03-.05.8.48 1.68.84 3.04 1.5z" />
    <path d="m216.92 305.43c-4.91 2.41-9.17 4.49-13.43 6.58-7.96 3.9-15.91 7.84-23.9 11.68-1.82.87-3.22 2.03-4.38 3.68-29.08 41.42-58.19 82.82-87.29 124.22-.55.79-1.05 1.62-1.77 2.73 2.83 2.67 6.4 4.28 9.62 7.07-2.83-.82-12.82-7.34-15.91-10.28.51-.82 1.02-1.74 1.62-2.59 23.68-33.72 47.36-67.43 71.04-101.14 5.35-7.61 10.71-15.21 16.02-22.84 1.02-1.47 2.22-2.53 3.84-3.32 11.69-5.64 23.37-11.29 34.97-17.09 2.34-1.17 4.37-1.58 6.64-.16.71.45 1.5.76 2.93 1.46z" />
    <path d="m6.2 420.81c3.29 2.29 6.35 4.41 9.95 6.91-2.88-.72-13.06-7.36-16.15-10.34.78-1.16 1.57-2.41 2.42-3.62 20.78-29.55 41.56-59.09 62.34-88.64 7.84-11.15 15.7-22.28 23.47-33.48 1.41-2.03 3.08-3.47 5.31-4.54 11.31-5.42 22.69-10.73 33.79-16.57 3.79-1.99 6.22-.48 9.63 1.2-1.41.75-2.33 1.27-3.28 1.73-11.27 5.51-22.54 11.03-33.83 16.49-1.91.92-3.37 2.17-4.6 3.92-28.08 40.01-56.2 80-84.31 120-1.54 2.2-3.02 4.43-4.74 6.94z" />
  </g>
</svg>