<svg width="18" height="18" viewBox="0 0 18 18" fill="none" xmlns="http://www.w3.org/2000/svg">
<path fill-rule="evenodd" clip-rule="evenodd" d="M15.9275 0.429175L9.58734 6.76929C9.32734 7.02863 8.90733 7.02863 8.64799 6.76929L2.0732 0.194504C1.81387 -0.0648345 1.39319 -0.0648345 1.13385 0.194504L0.194504 1.13385C-0.0648345 1.39319 -0.0648345 1.8132 0.194504 2.0732L6.76929 8.64799C7.02863 8.90733 7.02863 9.32734 6.76929 9.58734L0.429175 15.9268C0.169836 16.1861 0.169836 16.6068 0.429175 16.8661L1.36853 17.8055C1.62786 18.0648 2.04854 18.0648 2.30788 17.8055L8.64799 11.4654C8.90733 11.206 9.32734 11.206 9.58734 11.4654L15.6921 17.5708C15.9515 17.8302 16.3721 17.8302 16.6315 17.5708L17.5708 16.6315C17.8302 16.3721 17.8302 15.9515 17.5708 15.6921L11.4654 9.58734C11.206 9.32734 11.206 8.90733 11.4654 8.64799L17.8055 2.30788C18.0648 2.04854 18.0648 1.62786 17.8055 1.36853L16.8661 0.429175C16.6068 0.169836 16.1868 0.169836 15.9275 0.429175Z" fill="#838383"/>
</svg>
